<?xml version="1.0" standalone="no"?>
<!DOCTYPE svg PUBLIC "-//W3C//DTD SVG 1.1//EN" "http://www.w3.org/Graphics/SVG/1.1/DTD/svg11.dtd" >
<svg xmlns="http://www.w3.org/2000/svg">
<metadata>
This is a custom SVG webfont generated by Font Squirrel.
Copyright   : 2000 AlbertJan Pool published by Fontshop International for the FontFont library
</metadata>
<defs>
<font id="webfontwdjj67IK" horiz-adv-x="817" >
<font-face units-per-em="2048" ascent="1638" descent="-410" />
<missing-glyph horiz-adv-x="366" />
<glyph unicode=" "  horiz-adv-x="366" />
<glyph unicode="&#x09;" horiz-adv-x="366" />
<glyph unicode="&#xa0;" horiz-adv-x="366" />
<glyph unicode="!" horiz-adv-x="526" d="M395 410h-217v1048h217v-1048zM414 0h-254v252h254v-252z" />
<glyph unicode="&#x22;" horiz-adv-x="894" d="M356 1047h-209v411h209v-411zM745 1047h-206v411h206v-411z" />
<glyph unicode="#" horiz-adv-x="1245" d="M1149 877h-172l-37 -261h145v-204h-178l-59 -412h-227l59 412h-219l-60 -412h-225l60 412h-140v204h172l37 261h-145l-2 206h180l53 375h227l-55 -375h219l56 375h225l-53 -375h139v-206zM752 877h-220l-38 -261h219z" />
<glyph unicode="$" horiz-adv-x="919" d="M834 403q0 -229 -95 -321q-66 -66 -180 -86v-229h-203v227q-117 18 -186 88q-92 92 -92 313h229q0 -117 41 -164q35 -39 107 -38q74 0 108 40q41 47 41 162q0 117 -25.5 161t-111.5 79l-174 72q-113 47 -158 123.5t-45 242.5q0 203 119 309q63 57 147 76v193h203v-191 q98 -18 162 -78q102 -100 102 -317h-229q0 111 -35 156q-33 43 -102 43q-61 0 -99 -41q-39 -45 -39 -144q0 -90 23 -128t98 -68l172 -70q131 -53 176.5 -138.5t45.5 -271.5z" />
<glyph unicode="%" horiz-adv-x="1499" d="M1403 229q0 -117 -75 -181t-185.5 -64t-185 64.5t-74.5 180.5v273q0 117 74.5 181.5t185 64.5t185.5 -65t75 -181v-273zM616 956q0 -117 -74.5 -181t-185 -64t-185.5 64.5t-75 180.5v273q0 117 75 181.5t185.5 64.5t185 -64.5t74.5 -181.5v-273zM1090 1458l-508 -1458 h-168l508 1458h168zM438 961v264q0 92 -82 92q-84 0 -84 -92v-264q0 -92 84 -93q82 1 82 93zM1225 233v265q0 92 -82 92t-82 -92v-265q0 -92 82 -92t82 92z" />
<glyph unicode="&#x26;" horiz-adv-x="1021" d="M1018 0h-227l-80 129q-129 -145 -299 -145q-152 0 -247 101t-95 273q0 219 217 441q-80 106 -117 184t-37 164q0 156 82 241t209 85q143 0 219 -85t76 -221q0 -121 -46 -212t-141 -189l175 -268q49 104 59 268h186q-10 -256 -125 -461zM604 295l-211 328 q-121 -123 -121 -250q0 -86 44 -140.5t114 -54.5q92 0 174 117zM524 1163q0 51 -27.5 83t-70.5 32q-45 0 -71.5 -33t-26.5 -90q0 -86 96 -215q53 59 76.5 106t23.5 117z" />
<glyph unicode="'" horiz-adv-x="505" d="M356 1047h-209v411h209v-411z" />
<glyph unicode="(" horiz-adv-x="542" d="M459 -47l-146 -146q-125 125 -166 197q-49 86 -49 242v966q0 156 49 242q43 74 166 197l146 -146q-86 -86 -115 -137t-29 -168v-942q0 -117 29 -168t115 -137z" />
<glyph unicode=")" horiz-adv-x="542" d="M446 246q0 -152 -51 -242q-35 -63 -164 -197l-147 146q90 90 115 137q31 51 30 168v942q0 117 -30 168q-25 47 -115 137l147 146q129 -133 164 -197q51 -90 51 -242v-966z" />
<glyph unicode="*" horiz-adv-x="854" d="M766 981l-78 -133l-190 119l8 -258h-158l8 258l-192 -119l-76 133l201 104l-201 105l76 135l192 -121l-8 258h158l-8 -258l190 121l78 -135l-201 -105z" />
<glyph unicode="+" horiz-adv-x="935" d="M846 487h-275v-274h-206v274h-275v207h275v275h206v-275h275v-207z" />
<glyph unicode="," horiz-adv-x="468" d="M352 -133l-235 -174v561h235v-387z" />
<glyph unicode="-" horiz-adv-x="604" d="M510 487h-414v207h414v-207z" />
<glyph unicode="." horiz-adv-x="479" d="M367 0h-252v252h252v-252z" />
<glyph unicode="/" horiz-adv-x="610" d="M596 1610l-379 -1762h-205l379 1762h205z" />
<glyph unicode="0" horiz-adv-x="821" d="M735 311q0 -154 -92 -241q-90 -86 -231 -86q-143 0 -234 86q-92 88 -92 241v836q0 154 92 242q90 86 234 86q141 0 231 -86q92 -88 92 -242v-836zM518 303v852q0 61 -29.5 93t-76.5 32t-78 -33t-31 -92v-852q0 -59 31 -92t78 -33t76.5 32t29.5 93z" />
<glyph unicode="1" horiz-adv-x="821" d="M580 0h-218v1204l-219 -168v246l219 176h218v-1458z" />
<glyph unicode="2" horiz-adv-x="821" d="M737 0h-641v184l365 709q59 111 59 260q0 61 -28.5 94t-75.5 33t-78 -33t-31 -92v-94h-217v86q0 156 90 242t236 86q141 0 225 -78q96 -90 96 -252q0 -166 -80 -320l-329 -630h409v-195z" />
<glyph unicode="3" horiz-adv-x="821" d="M739 416q0 -137 -16 -212t-80 -136q-88 -84 -233.5 -84t-235.5 86t-90 241v86h217v-94q0 -59 30.5 -92t78.5 -33q49 0 77 37q35 45 35 215t-33 213q-27 37 -81 37h-72v182h72q45 0 69 29q33 37 33 184q0 135 -29 172q-27 33 -71 33q-43 0 -71 -30.5t-28 -86.5v-102h-217 v88q0 156 90 242q88 84 226 84q141 0 223 -82q94 -94 94 -303q0 -160 -37 -232q-27 -51 -80 -86q59 -43 84 -88q45 -80 45 -268z" />
<glyph unicode="4" horiz-adv-x="821" d="M772 227h-100v-227h-217v227h-406v195l375 1036h211l-363 -1036h183v260h217v-260h100v-195z" />
<glyph unicode="5" horiz-adv-x="821" d="M741 492q0 -119 -4 -178.5t-26.5 -127t-67.5 -112.5q-90 -90 -231 -90q-145 0 -234 84q-92 88 -92 243v72h217v-100q0 -63 29.5 -95t79.5 -32q51 0 80 39q33 43 32 276q0 213 -28 258q-27 45 -84 45q-47 0 -78 -33.5t-31 -91.5v-31h-207v840h629v-194h-430v-392 q37 47 76 70q49 27 104 27q127 0 197 -88q43 -53 56 -144t13 -245z" />
<glyph unicode="6" horiz-adv-x="821" d="M739 442q0 -242 -69 -342q-82 -117 -260 -116q-172 0 -254 116q-43 61 -58.5 135t-15.5 207q0 184 59 344l256 672h226l-240 -590q33 25 90 25q123 0 193 -90q41 -53 57 -128t16 -233zM522 444q0 190 -33 234q-27 37 -78 37t-79 -37q-33 -43 -33 -234q0 -184 33 -229 q29 -37 80 -37t77 37q33 43 33 229z" />
<glyph unicode="7" horiz-adv-x="821" d="M748 1278l-383 -1278h-218l383 1264h-254v-195h-208v389h680v-180z" />
<glyph unicode="8" horiz-adv-x="821" d="M739 412q0 -133 -18.5 -208t-77.5 -134q-86 -86 -231 -86q-147 0 -234 86q-59 59 -77.5 134t-18.5 208q0 180 43 258q23 47 86 92q-51 37 -80 90q-39 76 -39 227q0 217 94 312q84 84 224 84q141 0 225 -84q94 -94 94 -312q0 -152 -39 -227q-29 -53 -80 -90q57 -43 86 -92 q43 -78 43 -258zM522 422q0 174 -33 215q-29 35 -77 35q-51 0 -80 -35q-33 -41 -33 -215q0 -166 33 -209q29 -35 80 -35q49 0 77 35q33 41 33 209zM512 1069q0 145 -31 182q-23 29 -69 29q-49 0 -72 -29q-31 -37 -31 -182q0 -156 37 -190q25 -25 66 -25t65 25q6 6 11.5 13 t9.5 17.5t6 18.5t4 22l3 22q1 7 1 24v24v26v23z" />
<glyph unicode="9" horiz-adv-x="821" d="M739 1016q0 -184 -59 -344l-256 -672h-225l239 590q-33 -25 -88 -25q-125 0 -194 90q-41 53 -57.5 128t-16.5 233q0 240 72 342q82 117 258 117q174 0 256 -117q43 -59 57 -133t14 -209zM522 1014q0 184 -33 229q-27 37 -78 37t-79 -37q-33 -43 -33 -229q0 -190 33 -234 q29 -37 80 -37t77 37q33 44 33 234z" />
<glyph unicode=":" horiz-adv-x="526" d="M414 641h-254v252h254v-252zM414 0h-254v252h254v-252z" />
<glyph unicode=";" horiz-adv-x="526" d="M406 -133l-238 -174v561h238v-387zM414 641h-254v252h254v-252z" />
<glyph unicode="&#x3c;" horiz-adv-x="821" d="M752 123l-682 399v152l682 397v-237l-416 -236l416 -236v-239z" />
<glyph unicode="=" horiz-adv-x="935" d="M846 668h-756v206h756v-206zM846 297h-756v207h756v-207z" />
<glyph unicode="&#x3e;" horiz-adv-x="821" d="M752 522l-682 -399v239l415 236l-415 236v237l682 -397v-152z" />
<glyph unicode="?" horiz-adv-x="872" d="M805 1073q0 -160 -70 -252l-121 -162q-47 -63 -47 -133v-116h-217v141q0 92 64 176l121 162q53 70 53 190q0 113 -41 158q-35 39 -88 39t-88 -37q-39 -43 -39 -160h-217q0 205 96 295q104 96 246 96q162 0 250 -92q98 -98 98 -305zM586 0h-254v252h254v-252z" />
<glyph unicode="@" horiz-adv-x="1245" d="M1135 0h-209v82q-37 -49 -72 -68q-51 -31 -111 -30q-123 0 -194 84q-61 70 -62 233v385q0 164 62 234q72 84 194 84q59 0 111 -29q39 -20 64 -55v170q0 182 -170 182h-267q-168 0 -168 -182v-811q0 -92 60 -150l-158 -156q-66 63 -92.5 128t-26.5 167v854q0 158 94 248 q88 88 242 88h365q154 0 241 -88q96 -92 97 -248v-1122zM918 303v381q0 61 -30 94t-77 33t-76.5 -33t-29.5 -94v-381q0 -61 29.5 -93t76.5 -32t77 32t30 93z" />
<glyph unicode="A" horiz-adv-x="958" d="M946 0h-239l-60 289h-338l-57 -289h-242l359 1458h223zM604 496l-125 610l-125 -610h250z" />
<glyph unicode="B" horiz-adv-x="966" d="M866 432q0 -244 -94 -340q-90 -92 -287 -92h-362v1458h364q195 0 285 -90q90 -92 90 -307q0 -170 -76 -246q-33 -33 -75 -51q47 -18 77 -53q78 -84 78 -279zM637 434q0 121 -41 174.5t-133 53.5h-111v-455h111q94 0 134 50t40 177zM633 1055q0 109 -39 152.5t-133 43.5 h-109v-395h109q90 0 131 47.5t41 151.5z" />
<glyph unicode="C" horiz-adv-x="915" d="M846 387q-6 -207 -121 -311q-102 -92 -252 -92q-174 0 -283 122q-51 57 -75.5 162t-27.5 188t-3 271t3 272t27.5 189.5t75.5 163.5q109 123 283 123q154 0 254 -95q111 -104 117 -307h-230q-4 94 -34 141q-33 53 -107 53.5t-108 -55.5q-51 -82 -51.5 -483t51.5 -483 q35 -55 108 -56q76 0 109 54q31 47 34 143h230z" />
<glyph unicode="D" horiz-adv-x="966" d="M883 729q0 -184 -3 -266t-28 -183.5t-76 -158.5q-106 -121 -282 -121h-371v1458h371q176 0 282 -121q51 -57 76 -158.5t28 -183.5t3 -266zM653 731q0 209 -9 311.5t-40 149.5q-39 59 -117 59h-135v-1044h135q78 0 117 59q31 47 40 151.5t9 313.5z" />
<glyph unicode="E" horiz-adv-x="811" d="M735 0h-612v1458h612v-207h-383v-413h330v-207h-330v-424h383v-207z" />
<glyph unicode="F" horiz-adv-x="798" d="M735 1251h-383v-413h330v-207h-330v-631h-229v1458h612v-207z" />
<glyph unicode="G" horiz-adv-x="931" d="M846 389q0 -193 -102.5 -299t-270.5 -106q-174 0 -283 122q-51 57 -75.5 162t-27.5 189t-3 272.5t3 272t27.5 188t75.5 162.5q109 123 283 123q162 0 260 -99q106 -109 113 -305h-230q-4 197 -143 197q-74 0 -108 -56q-51 -82 -51.5 -483t51.5 -483q35 -55 108 -56 q70 0 106.5 53.5t36.5 133.5v227h-143v189h373v-404z" />
<glyph unicode="H" horiz-adv-x="989" d="M866 0h-229v639h-285v-639h-229v1458h229v-614h285v614h229v-1458z" />
<glyph unicode="I" horiz-adv-x="475" d="M352 0h-229v1458h229v-1458z" />
<glyph unicode="J" horiz-adv-x="796" d="M686 381q0 -184 -100 -287q-104 -111 -293 -110q-176 0 -287 116l160 154q45 -63 127 -64q74 0 119 50.5t45 140.5v1077h229v-1077z" />
<glyph unicode="K" horiz-adv-x="960" d="M946 0h-248l-235 600l-111 -225v-375h-229v1458h229v-686l318 686h231l-293 -604z" />
<glyph unicode="L" horiz-adv-x="784" d="M735 0h-612v1458h229v-1251h383v-207z" />
<glyph unicode="M" horiz-adv-x="1224" d="M1102 0h-230v909l-198 -598h-127l-195 588v-899h-229v1458h207l282 -766l281 766h209v-1458z" />
<glyph unicode="N" horiz-adv-x="1021" d="M899 0h-203l-344 866v-866h-229v1458h205l342 -866v866h229v-1458z" />
<glyph unicode="O" horiz-adv-x="946" d="M862 729.5q0 -188.5 -3 -272.5t-27.5 -188.5t-75.5 -162.5q-109 -123 -283 -122.5t-283 122.5q-51 57 -75.5 162t-27.5 189t-3 272.5t3 272t27.5 188t75.5 162.5q109 123 283 123t283 -123q51 -57 75.5 -162t27.5 -188.5t3 -272zM633 729q0 219 -9.5 326.5t-39.5 156.5 q-35 55 -111 56q-74 0 -108 -56q-51 -82 -51.5 -483t51.5 -483q35 -55 108 -56q76 0 111 56q31 49 40 156.5t9 326.5z" />
<glyph unicode="P" horiz-adv-x="940" d="M864 1016q0 -227 -86 -337t-289 -110h-137v-569h-229v1458h366q197 0 286 -106.5t89 -335.5zM635 1013.5q0 114.5 -28.5 176t-112.5 61.5h-142v-475h142q84 0 112.5 61.5t28.5 176z" />
<glyph unicode="Q" horiz-adv-x="946" d="M924 80l-107 -127l-119 100q-90 -70 -225 -69q-174 0 -283 122q-51 57 -75.5 162t-27.5 189t-3 272.5t3 272t27.5 188t75.5 162.5q109 123 283 123t283 -123q51 -57 75.5 -162t27.5 -188.5t3 -272.5q0 -154 -2 -227.5t-15.5 -166.5t-41.5 -153zM633 729q0 225 -9.5 329.5 t-39.5 153.5q-35 55 -111 56q-74 0 -108 -56q-31 -49 -41.5 -155.5t-10.5 -327.5t10.5 -327.5t41.5 -155.5q35 -55 108 -56q31 0 49 11l-76 63l107 127l59 -49q21 88 21 387z" />
<glyph unicode="R" horiz-adv-x="978" d="M911 0h-239l-191 598h-129v-598h-229v1458h369q199 0 285.5 -101.5t86.5 -328.5q0 -145 -38 -237.5t-132 -143.5zM635 1028.5q0 106.5 -28.5 164.5t-112.5 58h-142v-446h142q84 0 112.5 58.5t28.5 165z" />
<glyph unicode="S" horiz-adv-x="905" d="M827 403q0 -229 -94 -321q-100 -96 -284 -96q-186 0 -283 96q-94 94 -94 313h229q0 -117 41 -164q35 -39 107 -38q76 0 110 40q39 45 39 162t-25.5 161t-111.5 79l-174 72q-113 47 -158 123.5t-45 242.5q0 203 119 309q100 88 250 88q170 0 262 -88q102 -100 102 -317 h-229q0 111 -35 156q-33 43 -102 43q-61 0 -99 -41q-39 -45 -39 -144q0 -90 22.5 -128t98.5 -68l172 -70q129 -53 175 -139.5t46 -270.5z" />
<glyph unicode="T" horiz-adv-x="804" d="M762 1251h-246v-1251h-229v1251h-244v207h719v-207z" />
<glyph unicode="U" horiz-adv-x="964" d="M854 358q0 -164 -100 -268q-104 -106 -271 -106q-168 0 -272 106q-100 104 -100 268v1100h229v-1112q0 -76 41 -116t102.5 -40t101.5 40t40 116v1112h229v-1100z" />
<glyph unicode="V" horiz-adv-x="894" d="M887 1458l-322 -1458h-237l-320 1458h252l186 -1106l189 1106h252z" />
<glyph unicode="W" horiz-adv-x="1462" d="M1454 1458l-274 -1458h-240l-209 1108l-207 -1108h-239l-277 1458h252l143 -1106l201 1106h254l203 -1106l141 1106h252z" />
<glyph unicode="X" horiz-adv-x="884" d="M862 0h-252l-168 524l-168 -524h-251l288 756l-266 702h252l145 -487l146 487h252l-273 -702z" />
<glyph unicode="Y" horiz-adv-x="796" d="M795 1458l-283 -887v-571h-229v571l-283 887h254l143 -577l146 577h252z" />
<glyph unicode="Z" horiz-adv-x="763" d="M698 0h-635v172l398 1079h-373v207h610v-172l-395 -1079h395v-207z" />
<glyph unicode="[" horiz-adv-x="577" d="M518 -152h-409v1762h409v-193h-192v-1376h192v-193z" />
<glyph unicode="\" horiz-adv-x="610" d="M596 -152h-205l-379 1762h205z" />
<glyph unicode="]" horiz-adv-x="577" d="M467 -152h-408v193h191v1376h-191v193h408v-1762z" />
<glyph unicode="^" horiz-adv-x="948" d="M856 889h-211l-170 362l-170 -362h-213l287 579h190z" />
<glyph unicode="_" horiz-adv-x="935" d="M936 -313h-936v157h936v-157z" />
<glyph unicode="`" d="M502 1202h-152l-178 285h182z" />
<glyph unicode="a" d="M717 0h-205v92q-37 -51 -66 -72q-53 -37 -122 -36q-125 0 -203 90q-66 78 -66 241q0 154 101 242q84 74 247 74h97v149q0 125 -105 125q-45 0 -71 -31q-33 -35 -33 -100h-217q0 141 92 234q88 88 227 88q152 0 230 -80q94 -94 94 -254v-762zM500 317v160h-72 q-78 0 -113 -33q-43 -39 -43 -120q0 -150 113 -150q49 0 82 38.5t33 104.5z" />
<glyph unicode="b" horiz-adv-x="835" d="M762 540.5q0 -204.5 -13.5 -308t-62.5 -164.5q-68 -84 -190 -84q-57 0 -109 30q-16 8 -38.5 30t-33.5 38v-82h-209v1458h218v-448q27 37 63 57q47 29 109 29q121 0 190 -84q49 -61 62.5 -164t13.5 -307.5zM545 541q0 264 -31 317q-29 45 -82 45q-45 0 -74 -29 q-35 -35 -34 -102v-465q0 -68 34 -102q27 -27 74 -27q55 0 82 43q31 54 31 320z" />
<glyph unicode="c" horiz-adv-x="786" d="M729 317q-10 -170 -94 -254q-80 -80 -229 -79q-174 0 -256 114q-76 102 -76 443q0 336 76 442q82 113 256 113q145 0 227 -76q84 -82 96 -256h-215q-4 70 -29 100q-27 39 -79 39q-55 0 -84 -45q-31 -53 -31 -317.5t31 -319.5q27 -43 84 -43q53 0 79 37q25 31 29 102h215z " />
<glyph unicode="d" horiz-adv-x="835" d="M729 0h-209v82q-10 -16 -32.5 -37.5t-38.5 -30.5q-51 -31 -109 -30q-123 0 -190 84q-49 61 -62.5 164.5t-13.5 308t13 307t63 164.5q70 84 190 84q61 0 109 -29q37 -20 63 -57v448h217v-1458zM512 307v465q0 68 -35 102q-29 29 -74 29q-53 0 -81 -45q-31 -53 -31 -317 q0 -266 31 -320q27 -43 81 -43q47 0 74 27q35 34 35 102z" />
<glyph unicode="e" horiz-adv-x="806" d="M735 477h-444q0 -209 33 -256q29 -43 84 -43q49 0 81 43q27 33 27 96h215q-6 -156 -90 -247q-78 -86 -233 -86q-145 0 -234 88q-63 63 -81.5 175.5t-18.5 293t18.5 293t81.5 176.5q86 86 232 86q152 0 231 -86q16 -18 30.5 -40t23.5 -50l17 -51q7 -22 12 -61.5t8 -60 t4 -68.5t2 -64.5t1 -70.5v-67zM518 637q0 184 -31 223q-33 43 -82 43t-81 -43q-33 -41 -33 -223h227z" />
<glyph unicode="f" horiz-adv-x="555" d="M516 913h-149v-913h-217v913h-111v166h111v64q0 174 108 260q88 68 258 67v-194q-150 0 -149 -146v-51h149v-166z" />
<glyph unicode="g" horiz-adv-x="835" d="M729 -20q0 -188 -92 -281q-88 -88 -234 -88q-147 0 -233 84q-90 90 -90 237h215q0 -66 31 -102q29 -33 77 -33q47 0 78 35q31 37 31 133v185q-31 -41 -61 -60q-39 -25 -105 -24q-119 0 -186 79q-49 57 -67.5 155.5t-18.5 279t18.5 279.5t67.5 157q68 80 186 80 q59 0 111 -29q37 -20 63 -57v69h209v-1099zM512 383v389q0 63 -33 100q-29 31 -76 31q-45 0 -79 -45q-33 -43 -33 -280.5t32.5 -280.5t79.5 -43q51 0 78 31q31 35 31 98z" />
<glyph unicode="h" horiz-adv-x="854" d="M754 0h-217v776q0 61 -30 93t-77 32t-76.5 -31.5t-29.5 -93.5v-776h-218v1458h218v-448q27 37 63 57q47 29 109 29q125 0 196 -84q61 -70 62 -234v-778z" />
<glyph unicode="i" horiz-adv-x="430" d="M324 0h-218v1051h218v-1051zM334 1217h-240v239h240v-239z" />
<glyph unicode="j" horiz-adv-x="430" d="M324 -51q0 -176 -111 -260q-88 -68 -254 -68v195q76 0 111.5 32.5t35.5 112.5v1090h218v-1102zM334 1217h-240v239h240v-239z" />
<glyph unicode="k" horiz-adv-x="851" d="M838 0h-240l-182 455l-92 -146v-309h-218v1458h218v-840l272 461h227l-268 -428z" />
<glyph unicode="l" horiz-adv-x="499" d="M465 0q-172 0 -256 66q-109 82 -109 262v1130h217v-1118q0 -145 148 -145v-195z" />
<glyph unicode="m" horiz-adv-x="1286" d="M1186 0h-217v776q0 59 -31 92t-78 33t-76.5 -31.5t-29.5 -93.5v-776h-217v776q0 61 -30 93t-77 32t-76.5 -31.5t-29.5 -93.5v-776h-218v1079h209v-80q37 49 72 68q47 29 109 29q133 0 211 -111q45 51 96 82q51 29 115 29q133 0 204 -84q63 -72 64 -234v-778z" />
<glyph unicode="n" horiz-adv-x="854" d="M754 0h-217v776q0 61 -30 93t-77 32t-76.5 -31.5t-29.5 -93.5v-776h-218v1079h209v-80q37 49 72 68q47 29 109 29q125 0 196 -84q61 -70 62 -234v-778z" />
<glyph unicode="o" horiz-adv-x="811" d="M737 541q0 -336 -75 -443q-82 -115 -256.5 -114.5t-255.5 114.5q-76 106 -76 442.5t76 442.5q82 113 256 113t256 -113q75 -106 75 -442zM520 541q0 264 -31 317q-29 45 -84 45t-83 -45q-31 -53 -31 -317q0 -266 31 -320q27 -43 84 -43t83 43q31 54 31 320z" />
<glyph unicode="p" horiz-adv-x="835" d="M762 540.5q0 -204.5 -13.5 -308t-62.5 -164.5q-70 -84 -190 -84q-61 0 -109 28q-37 20 -63 58v-449h-218v1458h209v-80q10 16 33 38t39 30q47 29 109 29q123 0 190 -84q49 -61 62.5 -164t13.5 -307.5zM545 541q0 264 -31 317q-29 45 -82 45q-45 0 -74 -29 q-35 -35 -34 -102v-465q0 -68 34 -102q27 -27 74 -27q55 0 82 43q31 54 31 320z" />
<glyph unicode="q" horiz-adv-x="835" d="M729 -379h-217v449q-27 -37 -63 -58q-47 -29 -109 -28q-121 0 -190 84q-49 61 -62.5 164.5t-13.5 308t13 307t63 164.5q68 84 190 84q61 0 109 -29q16 -8 38.5 -29.5t32.5 -38.5v80h209v-1458zM512 307v465q0 68 -35 102q-29 29 -74 29q-53 0 -81 -45q-31 -53 -31 -317 q0 -266 31 -320q27 -43 81 -43q47 0 74 27q35 34 35 102z" />
<glyph unicode="r" horiz-adv-x="612" d="M578 885h-74q-78 0 -129 -50.5t-51 -136.5v-698h-218v1079h209v-114q33 49 95 86q74 45 168 45v-211z" />
<glyph unicode="s" horiz-adv-x="780" d="M721 311q0 -143 -96 -239q-88 -88 -236 -88q-154 0 -237 88q-96 100 -97 243h215q0 -66 37 -102q31 -33 82 -33t84 31q31 27 31 86q0 47 -23 80q-25 37 -84 61l-143 64q-111 49 -158 125q-35 55 -35 147q0 133 95 232q90 90 233 90q141 0 227 -82q92 -88 93 -240h-213 q0 66 -31 98.5t-76 32.5q-49 0 -79.5 -30.5t-30.5 -81.5q0 -39 16 -64q23 -37 80 -61l143 -62q111 -49 158 -119q45 -63 45 -176z" />
<glyph unicode="t" horiz-adv-x="561" d="M520 0q-178 0 -262 66q-109 86 -108 262v585h-111v166h111v277h217v-277h149v-166h-149v-573q0 -145 153 -145v-195z" />
<glyph unicode="u" horiz-adv-x="854" d="M748 0h-207v82q-35 -47 -74 -68q-51 -31 -109 -30q-125 0 -196 84q-61 70 -62 233v778h217v-776q0 -61 30 -93t77 -32t76.5 32t29.5 93v776h218v-1079z" />
<glyph unicode="v" horiz-adv-x="780" d="M772 1079l-266 -1079h-230l-268 1079h240l143 -735l141 735h240z" />
<glyph unicode="w" horiz-adv-x="1181" d="M1174 1079l-242 -1079h-215l-129 700l-127 -700h-215l-238 1079h242l112 -735l134 735h186l135 -735l113 735h244z" />
<glyph unicode="x" horiz-adv-x="800" d="M782 0h-241l-142 336l-141 -336h-240l254 549l-241 530h239l129 -327l129 327h242l-246 -530z" />
<glyph unicode="y" horiz-adv-x="782" d="M772 1079l-303 -1216q-37 -150 -134 -196t-269 -46v193q57 2 87.5 7t61.5 30.5t43 74.5l18 76l-268 1077h240l143 -735l141 735h240z" />
<glyph unicode="z" horiz-adv-x="665" d="M612 0h-559v164l316 723h-291v192h534v-161l-315 -723h315v-195z" />
<glyph unicode="{" horiz-adv-x="686" d="M629 -152h-125q-119 0 -193 74q-78 74 -78 213v389q0 47 -26.5 78t-67.5 31h-80v192h80q41 0 67.5 31t26.5 78v389q0 139 78 213q74 74 193 74h125v-195h-80q-43 0 -70.5 -29.5t-27.5 -76.5v-369q0 -111 -56 -166q-33 -33 -76 -45q35 -10 76 -45q55 -55 56 -166v-368 q0 -47 27.5 -77t70.5 -30h80v-195z" />
<glyph unicode="|" horiz-adv-x="675" d="M446 -152h-217v1762h217v-1762z" />
<glyph unicode="}" horiz-adv-x="686" d="M629 633h-80q-41 0 -68.5 -31t-27.5 -78v-389q0 -141 -76 -213q-74 -74 -195 -74h-123v195h80q41 0 69 29.5t28 77.5v368q0 111 55 166q33 33 76 45q-55 16 -76 45q-55 55 -55 166v369q0 47 -28 76.5t-69 29.5h-80v195h123q121 0 195 -74q76 -72 76 -213v-389 q0 -47 27.5 -78t68.5 -31h80v-192z" />
<glyph unicode="~" horiz-adv-x="935" d="M889 588q-135 -135 -258 -135q-84 0 -180 51q-78 41 -136 41q-68 0 -135 -68l-133 131q135 135 258 135q86 0 182 -51q78 -41 134 -41q68 0 135 68z" />
<glyph unicode="&#xa1;" horiz-adv-x="526" d="M348 -379h-217v1051h217v-1051zM367 827h-252v252h252v-252z" />
<glyph unicode="&#xa2;" horiz-adv-x="802" d="M737 530q-6 -160 -92 -241q-49 -49 -145 -70v-219h-166v219q-111 20 -174 103q-76 100 -76 421.5t76 421.5q63 82 174 103v190h166v-190q82 -12 143 -68q86 -78 94 -244h-215q0 61 -26 97q-29 35 -80 34q-57 0 -84 -40q-31 -51 -31 -303t31 -304q29 -43 84 -43 q49 0 80 37q27 31 26 96h215z" />
<glyph unicode="&#xa3;" horiz-adv-x="942" d="M874 0h-679v664h-129v165h129v250q0 178 110.5 287t280.5 109q178 0 288 -117l-157 -154q-49 63 -131 64q-70 0 -116 -50.5t-46 -136.5v-252h164v-165h-164v-457h450v-207z" />
<glyph unicode="&#xa4;" horiz-adv-x="1019" d="M940 387q-6 -207 -121 -311q-102 -92 -252 -92q-172 0 -280 122q-96 109 -103 375h-118v166h114v164h-114v166h118q6 264 103 375q109 123 280 123q156 0 256 -95q111 -104 117 -307h-229q-4 195 -144 195q-78 0 -112 -56q-37 -57 -39 -235h217v-166h-223v-164h223v-166 h-217q2 -180 41 -235q37 -55 110 -56q139 0 144 197h229z" />
<glyph unicode="&#xa5;" horiz-adv-x="796" d="M778 1458l-190 -624h121v-164h-172l-31 -99v-82h203v-165h-203v-324h-217v324h-203v165h203v82l-29 99h-174v164h123l-191 624h240l139 -577l142 577h239z" />
<glyph unicode="&#xa6;" horiz-adv-x="675" d="M446 897h-217v709h217v-709zM446 -147h-217v708h217v-708z" />
<glyph unicode="&#xa7;" horiz-adv-x="878" d="M786 553q0 -125 -18 -190.5t-82 -118.5q-29 -25 -53 -31q68 -43 100 -98q39 -66 39 -156q0 -145 -96 -242q-84 -86 -242 -86q-147 0 -237 90q-96 96 -97 232h222q0 -57 32 -92q31 -33 80 -33q55 0 84 29q31 31 31 84q0 43 -23 75q-29 41 -84 64l-149 63q-61 27 -103 66 q-66 63 -82 136t-16 208q0 119 19.5 182.5t81.5 116.5q31 23 57 33q-72 45 -105 100q-37 59 -36 154q0 135 94 229q90 90 237 90q129 0 217 -72q106 -88 107 -241h-217q0 59 -31 90q-31 33 -76 33q-47 0 -77.5 -31t-30.5 -80q0 -43 16 -72q25 -39 80 -61l147 -63 q78 -31 121 -74q55 -57 72.5 -123t17.5 -211zM569 553q0 57 -2 86t-12 64.5t-33 56.5q-35 31 -82 31t-84 -31q-47 -41 -47 -207q0 -168 47 -209q35 -29 84 -29q45 0 82 31q23 18 33 55t12 66t2 86z" />
<glyph unicode="&#xa8;" d="M690 1223h-205v204h205v-204zM332 1223h-205v204h205v-204z" />
<glyph unicode="&#xa9;" horiz-adv-x="1728" d="M1606 729q0 -307 -217.5 -524t-524.5 -217t-524 217t-217 524t217 524t524 217t524.5 -217t217.5 -524zM1460 729q0 260 -172 434t-424 174t-424 -174t-172 -434t172 -434t424 -174t424 174t172 434zM1079 551q-2 -117 -65 -180q-57 -57 -146 -58q-94 0 -157 74 q-29 33 -42.5 95.5t-15.5 109.5t-2 135t2 135t15.5 109.5t42.5 95.5q63 74 157 74q90 0 146 -56q59 -61 63 -180h-131q0 55 -18 82q-20 31 -60 31q-35 0 -57 -33q-29 -45 -29 -258t29 -258q23 -33 57 -33q37 0 58 27q20 25 20 88h133z" />
<glyph unicode="&#xaa;" horiz-adv-x="677" d="M592 602h-168v70q-29 -37 -57 -54q-43 -25 -97 -24q-104 0 -166 70q-53 59 -53 188q0 121 84 192q70 59 201 60h76v110q0 96 -82 97q-35 0 -62 -27q-23 -25 -22 -78h-180q0 117 73 191q72 72 189 71q121 0 188 -67q76 -76 76 -203v-596zM412 860v117h-58q-59 0 -88 -27 q-35 -31 -35 -90q0 -115 91 -115q39 0 64.5 32t25.5 83z" />
<glyph unicode="&#xab;" horiz-adv-x="847" d="M379 55l-330 510l330 508v-323l-125 -185l125 -188v-322zM752 55l-328 510l328 508v-323l-127 -185l127 -188v-322z" />
<glyph unicode="&#xac;" horiz-adv-x="935" d="M834 291h-207v225h-523v207h730v-432z" />
<glyph unicode="&#xad;" horiz-adv-x="604" d="M510 487h-414v207h414v-207z" />
<glyph unicode="&#xae;" horiz-adv-x="1728" d="M1606 729q0 -307 -217.5 -524t-524.5 -217t-524 217t-217 524t217 524t524 217t524.5 -217t217.5 -524zM1460 729q0 260 -172 434t-424 174t-424 -174t-172 -434t172 -434t424 -174t424 174t172 434zM1114 324h-137l-100 327h-72v-327h-133v806h213q102 0 151 -49 q53 -55 54 -190q0 -127 -52 -180q-14 -16 -39 -31zM958 891q0 70 -22 96q-20 20 -51 21h-80v-234h80q31 0 51 21q22 24 22 96z" />
<glyph unicode="&#xaf;" d="M659 1249h-501v146h501v-146z" />
<glyph unicode="&#xb0;" horiz-adv-x="839" d="M752 1155q0 -137 -97.5 -234.5t-234.5 -97.5t-234.5 97.5t-97.5 234.5t97.5 234.5t234.5 97.5t234.5 -97.5t97.5 -234.5zM561 1155q0 59 -41 101t-100.5 42t-100 -42t-40.5 -101t40.5 -100t100 -41t100.5 41t41 100z" />
<glyph unicode="&#xb1;" horiz-adv-x="935" d="M846 647h-275v-274h-206v274h-275v207h275v274h206v-274h275v-207zM846 27h-756v206h756v-206z" />
<glyph unicode="&#xb2;" horiz-adv-x="649" d="M565 584h-473v114l273 416q43 66 43 148q0 39 -24 61.5t-60 22.5q-84 0 -84 -89v-61h-156v57q0 106 66 160q63 55 174 55q104 0 168 -49q74 -59 73 -162q0 -98 -59 -188l-244 -364h303v-121z" />
<glyph unicode="&#xb3;" horiz-adv-x="649" d="M563 829q0 -76 -12 -118.5t-57 -81.5q-68 -55 -175 -56q-109 0 -176 58q-66 55 -65 164v36h158v-40q0 -51 22 -72q23 -23 61 -23q43 0 62 23q25 27 25 121q0 90 -23 116q-20 27 -66 27h-51v117h51q35 0 56 18q27 27 26 109q0 76 -22 98q-20 20 -57 20.5t-57.5 -20 t-20.5 -63.5v-50h-158v41q0 104 63 160q66 55 172 55q109 0 168 -53q68 -59 68 -180q0 -92 -29 -137q-23 -33 -63 -56q45 -23 69 -61q31 -50 31 -152z" />
<glyph unicode="&#xb4;" d="M645 1487l-178 -285h-152l148 285h182z" />
<glyph unicode="&#xb5;" horiz-adv-x="862" d="M752 0h-209v82q-37 -49 -72 -68q-51 -31 -115 -30q-33 0 -45 16v-379h-209v1458h217v-776q0 -59 31 -92t78 -33t77 32t30 93v776h217v-1079z" />
<glyph unicode="&#xb6;" horiz-adv-x="1232" d="M1124 -379h-217v1630h-207v-1630h-217v965h-106q-303 0 -303 436t303 436h747v-1837z" />
<glyph unicode="&#xb7;" horiz-adv-x="557" d="M442 453h-327v327h327v-327z" />
<glyph unicode="&#xb8;" d="M498 -82l-109 -315h-156l125 315h140z" />
<glyph unicode="&#xb9;" horiz-adv-x="649" d="M434 584h-158v714l-153 -96v156l156 100h155v-874z" />
<glyph unicode="&#xba;" horiz-adv-x="673" d="M608 1028q0 -264 -63 -348q-66 -90 -207 -90q-143 0 -209 90q-63 84 -63 348t63 348q66 90 209 90q141 0 207 -90q63 -84 63 -348zM428 1028q0 201 -27 246q-23 35 -63 35q-43 0 -66 -35q-27 -47 -26.5 -246t26.5 -246q23 -35 66 -34q41 0 63 34q27 45 27 246z" />
<glyph unicode="&#xbb;" horiz-adv-x="847" d="M797 565l-328 -510v322l125 188l-125 185v323zM424 565l-328 -510v322l127 188l-127 185v323z" />
<glyph unicode="&#xbc;" horiz-adv-x="1607" d="M1126 1458l-503 -1458h-168l503 1458h168zM1536 129h-70v-129h-155v129h-299v123l223 622h154l-218 -622h140v143h155v-143h70v-123zM432 584h-156v714l-153 -96v156l153 100h156v-874z" />
<glyph unicode="&#xbd;" horiz-adv-x="1607" d="M1126 1458l-503 -1458h-168l503 1458h168zM1524 0h-473v115l274 415q41 63 41 148q0 39 -23.5 61.5t-60.5 22.5q-82 0 -82 -88v-62h-158v58q0 106 66 159q63 55 174 56q106 0 170 -49q72 -57 72 -162q0 -98 -60 -189l-241 -364h301v-121zM432 584h-156v714l-153 -96v156 l153 100h156v-874z" />
<glyph unicode="&#xbe;" horiz-adv-x="1607" d="M1126 1458l-503 -1458h-168l503 1458h168zM563 829q0 -76 -12 -118.5t-57 -81.5q-68 -55 -175 -56q-109 0 -176 58q-66 55 -65 164v36h158v-40q0 -51 22 -72q23 -23 61 -23q43 0 62 23q25 27 25 121q0 90 -23 116q-20 27 -66 27h-51v117h51q35 0 56 18q27 27 26 109 q0 76 -22 98q-20 20 -57 20.5t-57.5 -20t-20.5 -63.5v-50h-158v41q0 104 63 160q66 55 172 55q109 0 168 -53q68 -59 68 -180q0 -92 -29 -137q-23 -33 -63 -56q45 -23 69 -61q31 -50 31 -152zM1536 129h-70v-129h-157v129h-299v123l225 622h151l-215 -622h138v143h157v-143 h70v-123z" />
<glyph unicode="&#xbf;" horiz-adv-x="872" d="M758 2q0 -207 -96 -297q-104 -96 -246 -96q-160 0 -250 94q-98 98 -98 305q0 160 69 252l121 160q47 63 47 133v119h217v-144q0 -92 -63 -176l-121 -159q-53 -70 -53 -191q0 -113 41 -160q35 -39 88 -39t88 39q39 43 39 160h217zM541 827h-252v252h252v-252z" />
<glyph unicode="&#xc0;" horiz-adv-x="958" d="M946 0h-239l-60 289h-338l-57 -289h-242l359 1458h223zM604 496l-125 610l-125 -610h250zM573 1556h-151l-178 285h182z" />
<glyph unicode="&#xc1;" horiz-adv-x="958" d="M946 0h-239l-60 289h-338l-57 -289h-242l359 1458h223zM604 496l-125 610l-125 -610h250zM715 1841l-178 -285h-152l147 285h183z" />
<glyph unicode="&#xc2;" horiz-adv-x="958" d="M946 0h-239l-60 289h-338l-57 -289h-242l359 1458h223zM768 1556h-166l-123 168l-121 -168h-165l202 285h170zM604 496l-125 610l-125 -610h250z" />
<glyph unicode="&#xc3;" horiz-adv-x="958" d="M946 0h-239l-60 289h-338l-57 -289h-242l359 1458h223zM780 1667q-94 -94 -182 -94q-68 0 -127 35q-51 31 -90 30q-47 0 -94 -47l-92 95q96 96 180 96q68 0 127 -35q51 -31 90 -31q45 0 92 47zM604 496l-125 610l-125 -610h250z" />
<glyph unicode="&#xc4;" horiz-adv-x="958" d="M946 0h-239l-60 289h-338l-57 -289h-242l359 1458h223zM604 496l-125 610l-125 -610h250zM762 1577h-205v205h205v-205zM403 1577h-204v205h204v-205z" />
<glyph unicode="&#xc5;" horiz-adv-x="958" d="M946 0h-239l-60 289h-338l-57 -289h-242l359 1458h223zM694 1763q0 -88 -62.5 -151.5t-152.5 -63.5q-88 0 -150.5 62.5t-62.5 152.5q0 88 61.5 150.5t151.5 62.5t152.5 -62.5t62.5 -150.5zM604 496l-125 610l-125 -610h250zM573 1763q0 39 -27.5 67t-66.5 28t-65.5 -28 t-26.5 -67t26.5 -66.5t65.5 -27.5t66.5 27.5t27.5 66.5z" />
<glyph unicode="&#xc6;" horiz-adv-x="1382" d="M1307 0h-613v303h-323l-107 -303h-252l535 1458h760v-207h-383v-413h329v-207h-329v-424h383v-207zM694 510v741l-256 -741h256z" />
<glyph unicode="&#xc7;" horiz-adv-x="915" d="M846 387q-6 -207 -121 -311q-102 -92 -252 -92q-174 0 -283 122q-51 57 -75.5 162t-27.5 188t-3 271t3 272t27.5 189.5t75.5 163.5q109 123 283 123q154 0 254 -95q111 -104 117 -307h-230q-4 94 -34 141q-33 53 -107 53.5t-108 -55.5q-51 -82 -51.5 -483t51.5 -483 q35 -55 108 -56q76 0 109 54q31 47 34 143h230zM547 -82l-109 -315h-155l125 315h139z" />
<glyph unicode="&#xc8;" horiz-adv-x="811" d="M735 0h-612v1458h612v-207h-383v-413h330v-207h-330v-424h383v-207zM528 1556h-151l-178 285h182z" />
<glyph unicode="&#xc9;" horiz-adv-x="811" d="M735 0h-612v1458h612v-207h-383v-413h330v-207h-330v-424h383v-207zM672 1841l-178 -285h-152l147 285h183z" />
<glyph unicode="&#xca;" horiz-adv-x="811" d="M735 0h-612v1458h612v-207h-383v-413h330v-207h-330v-424h383v-207zM725 1556h-166l-123 168l-121 -168h-165l202 285h170z" />
<glyph unicode="&#xcb;" horiz-adv-x="811" d="M735 0h-612v1458h612v-207h-383v-413h330v-207h-330v-424h383v-207zM360 1577h-204v205h204v-205zM719 1577h-205v205h205v-205z" />
<glyph unicode="&#xcc;" horiz-adv-x="475" d="M352 0h-229v1458h229v-1458zM352 1556h-151l-178 285h182z" />
<glyph unicode="&#xcd;" horiz-adv-x="475" d="M352 0h-229v1458h229v-1458zM477 1841l-178 -285h-152l148 285h182z" />
<glyph unicode="&#xce;" horiz-adv-x="475" d="M352 0h-229v1458h229v-1458zM526 1556h-166l-122 168l-121 -168h-166l203 285h170z" />
<glyph unicode="&#xcf;" horiz-adv-x="475" d="M352 0h-229v1458h229v-1458zM160 1577h-205v205h205v-205zM518 1577h-205v205h205v-205z" />
<glyph unicode="&#xd0;" horiz-adv-x="1001" d="M918 729q0 -184 -3.5 -266t-28 -183.5t-75.5 -158.5q-106 -121 -283 -121h-370v643h-105v180h105v635h370q176 0 283 -121q51 -57 75.5 -158.5t28 -183.5t3.5 -266zM688 731q0 209 -9 311.5t-40 149.5q-39 59 -117 59h-135v-428h143v-180h-143v-436h135q78 0 117 59 q31 47 40 151.5t9 313.5z" />
<glyph unicode="&#xd1;" horiz-adv-x="1021" d="M899 0h-203l-344 866v-866h-229v1458h205l342 -866v866h229v-1458zM819 1667q-94 -94 -182 -94q-68 0 -127 35q-51 31 -90 30q-47 0 -94 -47l-93 95q96 96 181 96q68 0 127 -35q51 -31 90 -31q45 0 92 47z" />
<glyph unicode="&#xd2;" horiz-adv-x="946" d="M862 729.5q0 -188.5 -3 -272.5t-27.5 -188.5t-75.5 -162.5q-109 -123 -283 -122.5t-283 122.5q-51 57 -75.5 162t-27.5 189t-3 272.5t3 272t27.5 188t75.5 162.5q109 123 283 123t283 -123q51 -57 75.5 -162t27.5 -188.5t3 -272zM633 729q0 219 -9.5 326.5t-39.5 156.5 q-35 55 -111 56q-74 0 -108 -56q-51 -82 -51.5 -483t51.5 -483q35 -55 108 -56q76 0 111 56q31 49 40 156.5t9 326.5zM563 1556h-151l-179 285h183z" />
<glyph unicode="&#xd3;" horiz-adv-x="946" d="M862 729.5q0 -188.5 -3 -272.5t-27.5 -188.5t-75.5 -162.5q-109 -123 -283 -122.5t-283 122.5q-51 57 -75.5 162t-27.5 189t-3 272.5t3 272t27.5 188t75.5 162.5q109 123 283 123t283 -123q51 -57 75.5 -162t27.5 -188.5t3 -272zM633 729q0 219 -9.5 326.5t-39.5 156.5 q-35 55 -111 56q-74 0 -108 -56q-51 -82 -51.5 -483t51.5 -483q35 -55 108 -56q76 0 111 56q31 49 40 156.5t9 326.5zM709 1841l-179 -285h-151l147 285h183z" />
<glyph unicode="&#xd4;" horiz-adv-x="946" d="M862 729.5q0 -188.5 -3 -272.5t-27.5 -188.5t-75.5 -162.5q-109 -123 -283 -122.5t-283 122.5q-51 57 -75.5 162t-27.5 189t-3 272.5t3 272t27.5 188t75.5 162.5q109 123 283 123t283 -123q51 -57 75.5 -162t27.5 -188.5t3 -272zM633 729q0 219 -9.5 326.5t-39.5 156.5 q-35 55 -111 56q-74 0 -108 -56q-51 -82 -51.5 -483t51.5 -483q35 -55 108 -56q76 0 111 56q31 49 40 156.5t9 326.5zM758 1556h-166l-123 168l-121 -168h-166l203 285h170z" />
<glyph unicode="&#xd5;" horiz-adv-x="946" d="M862 729.5q0 -188.5 -3 -272.5t-27.5 -188.5t-75.5 -162.5q-109 -123 -283 -122.5t-283 122.5q-51 57 -75.5 162t-27.5 189t-3 272.5t3 272t27.5 188t75.5 162.5q109 123 283 123t283 -123q51 -57 75.5 -162t27.5 -188.5t3 -272zM633 729q0 219 -9.5 326.5t-39.5 156.5 q-35 55 -111 56q-74 0 -108 -56q-51 -82 -51.5 -483t51.5 -483q35 -55 108 -56q76 0 111 56q31 49 40 156.5t9 326.5zM770 1667q-94 -94 -182 -94q-68 0 -127 35q-51 31 -90 30q-47 0 -95 -47l-92 95q96 96 181 96q68 0 127 -35q51 -31 90 -31q45 0 92 47z" />
<glyph unicode="&#xd6;" horiz-adv-x="946" d="M862 729.5q0 -188.5 -3 -272.5t-27.5 -188.5t-75.5 -162.5q-109 -123 -283 -122.5t-283 122.5q-51 57 -75.5 162t-27.5 189t-3 272.5t3 272t27.5 188t75.5 162.5q109 123 283 123t283 -123q51 -57 75.5 -162t27.5 -188.5t3 -272zM633 729q0 219 -9.5 326.5t-39.5 156.5 q-35 55 -111 56q-74 0 -108 -56q-51 -82 -51.5 -483t51.5 -483q35 -55 108 -56q76 0 111 56q31 49 40 156.5t9 326.5zM752 1577h-205v205h205v-205zM393 1577h-205v205h205v-205z" />
<glyph unicode="&#xd7;" horiz-adv-x="935" d="M846 348l-139 -139l-238 237l-238 -237l-139 139l238 238l-238 237l139 140l238 -236l238 236l139 -140l-238 -237z" />
<glyph unicode="&#xd8;" horiz-adv-x="935" d="M864 729q0 -188 -3 -272t-27.5 -188.5t-75.5 -162.5q-109 -123 -285 -122q-104 0 -178 39l-39 -113h-152l76 209q-47 57 -68.5 162.5t-24.5 187.5t-3 260q0 188 3 272t27.5 188.5t75.5 162.5q109 123 283 123q104 0 178 -39l41 112h152l-76 -211q47 -57 68.5 -162.5 t24.5 -186.5t3 -259zM575 1225q-37 43 -102 43q-74 0 -108 -56q-51 -82 -52 -483q0 -190 11 -260zM633 729q0 203 -8 258l-252 -754q33 -43 100 -43q76 0 111 56q31 49 40 156.5t9 326.5z" />
<glyph unicode="&#xd9;" horiz-adv-x="964" d="M854 358q0 -164 -100 -268q-104 -106 -271 -106q-168 0 -272 106q-100 104 -100 268v1100h229v-1112q0 -76 41 -116t102.5 -40t101.5 40t40 116v1112h229v-1100zM578 1556h-152l-178 285h182z" />
<glyph unicode="&#xda;" horiz-adv-x="964" d="M854 358q0 -164 -100 -268q-104 -106 -271 -106q-168 0 -272 106q-100 104 -100 268v1100h229v-1112q0 -76 41 -116t102.5 -40t101.5 40t40 116v1112h229v-1100zM723 1841l-178 -285h-152l148 285h182z" />
<glyph unicode="&#xdb;" horiz-adv-x="964" d="M854 358q0 -164 -100 -268q-104 -106 -271 -106q-168 0 -272 106q-100 104 -100 268v1100h229v-1112q0 -76 41 -116t102.5 -40t101.5 40t40 116v1112h229v-1100zM772 1556h-166l-123 168l-121 -168h-165l202 285h170z" />
<glyph unicode="&#xdc;" horiz-adv-x="964" d="M854 358q0 -164 -100 -268q-104 -106 -271 -106q-168 0 -272 106q-100 104 -100 268v1100h229v-1112q0 -76 41 -116t102.5 -40t101.5 40t40 116v1112h229v-1100zM408 1577h-205v205h205v-205zM766 1577h-205v205h205v-205z" />
<glyph unicode="&#xdd;" horiz-adv-x="796" d="M795 1458l-283 -887v-571h-229v571l-283 887h254l143 -577l146 577h252zM635 1841l-178 -285h-152l148 285h182z" />
<glyph unicode="&#xde;" horiz-adv-x="940" d="M864 739q0 -227 -86 -336.5t-289 -109.5h-137v-293h-229v1458h229v-276h137q197 0 286 -107t89 -336zM635 737.5q0 114.5 -28.5 176t-112.5 61.5h-142v-475h142q84 0 112.5 61.5t28.5 176z" />
<glyph unicode="&#xdf;" horiz-adv-x="851" d="M780 440q0 -94 -3 -141t-25.5 -110.5t-67.5 -106.5q-84 -82 -250 -82v195q68 0 94 34q16 20 24.5 61.5t9.5 69t1 99.5q0 170 -31 215q-27 39 -81 39h-17v182h17q45 0 69 35q29 39 29 153q0 119 -31 160q-27 37 -84 37q-49 0 -79.5 -34t-30.5 -97v-1149h-218v1143 q0 156 92.5 244t233.5 88q154 0 238 -84q96 -96 96 -289q0 -137 -35 -207q-27 -51 -78 -88q53 -37 80 -84q47 -80 47 -283z" />
<glyph unicode="&#xe0;" d="M713 0h-205v92q-37 -51 -66 -72q-53 -37 -123 -36q-127 0 -202 90q-66 74 -66 241q0 154 101 242q84 74 247 74h97v149q0 125 -105 125q-45 0 -72 -31q-33 -35 -32 -100h-217q0 141 92 234q88 88 227 88q150 0 229 -80q94 -94 95 -254v-762zM496 317v160h-72 q-78 0 -113 -33q-43 -39 -43 -120q0 -150 113 -150q49 0 82 38.5t33 104.5zM498 1202h-152l-178 285h182z" />
<glyph unicode="&#xe1;" d="M717 0h-205v92q-37 -51 -66 -72q-53 -37 -122 -36q-125 0 -203 90q-66 78 -66 241q0 154 101 242q84 74 247 74h97v149q0 125 -105 125q-45 0 -71 -31q-33 -35 -33 -100h-217q0 141 92 234q88 88 227 88q152 0 230 -80q94 -94 94 -254v-762zM500 317v160h-72 q-78 0 -113 -33q-43 -39 -43 -120q0 -150 113 -150q49 0 82 38.5t33 104.5zM641 1487l-178 -285h-152l148 285h182z" />
<glyph unicode="&#xe2;" d="M717 0h-205v92q-37 -51 -66 -72q-53 -37 -122 -36q-125 0 -203 90q-66 78 -66 241q0 154 101 242q84 74 247 74h97v149q0 125 -105 125q-45 0 -71 -31q-33 -35 -33 -100h-217q0 141 92 234q88 88 227 88q152 0 230 -80q94 -94 94 -254v-762zM686 1202h-166l-123 168 l-121 -168h-165l202 285h170zM500 317v160h-72q-78 0 -113 -33q-43 -39 -43 -120q0 -150 113 -150q49 0 82 38.5t33 104.5z" />
<glyph unicode="&#xe3;" d="M717 0h-205v92q-37 -51 -66 -72q-53 -37 -122 -36q-125 0 -203 90q-66 78 -66 241q0 154 101 242q84 74 247 74h97v149q0 125 -105 125q-45 0 -71 -31q-33 -35 -33 -100h-217q0 141 92 234q88 88 227 88q152 0 230 -80q94 -94 94 -254v-762zM698 1313q-94 -94 -182 -94 q-68 0 -127 34q-51 31 -90 31q-47 0 -94 -47l-92 94q96 96 180 96q68 0 127 -34q51 -31 90 -31q45 0 92 47zM500 317v160h-72q-78 0 -113 -33q-43 -39 -43 -120q0 -150 113 -150q49 0 82 38.5t33 104.5z" />
<glyph unicode="&#xe4;" d="M717 0h-205v92q-37 -51 -66 -72q-53 -37 -122 -36q-125 0 -203 90q-66 78 -66 241q0 154 101 242q84 74 247 74h97v149q0 125 -105 125q-45 0 -71 -31q-33 -35 -33 -100h-217q0 141 92 234q88 88 227 88q152 0 230 -80q94 -94 94 -254v-762zM500 317v160h-72 q-78 0 -113 -33q-43 -39 -43 -120q0 -150 113 -150q49 0 82 38.5t33 104.5zM680 1223h-205v204h205v-204zM322 1223h-205v204h205v-204z" />
<glyph unicode="&#xe5;" d="M717 0h-205v92q-37 -51 -66 -72q-53 -37 -122 -36q-125 0 -203 90q-66 78 -66 241q0 154 101 242q84 74 247 74h97v149q0 125 -105 125q-45 0 -71 -31q-33 -35 -33 -100h-217q0 141 92 234q88 88 227 88q152 0 230 -80q94 -94 94 -254v-762zM612 1415q0 -88 -62.5 -151.5 t-152.5 -63.5q-88 0 -150.5 62.5t-62.5 152.5q0 88 61.5 150.5t151.5 62.5t152.5 -62.5t62.5 -150.5zM500 317v160h-72q-78 0 -113 -33q-43 -39 -43 -120q0 -150 113 -150q49 0 82 38.5t33 104.5zM492 1415q0 39 -28 66.5t-67 27.5t-65.5 -27.5t-26.5 -66.5t26.5 -66.5 t65.5 -27.5t67 27.5t28 66.5z" />
<glyph unicode="&#xe6;" horiz-adv-x="1232" d="M1161 477h-444q0 -209 33 -256q29 -43 81 -43q51 0 84 43q27 33 27 96h215q-6 -156 -90 -247q-78 -86 -236 -86q-104 0 -182 53q-49 35 -84 90q-45 -72 -86 -98q-61 -45 -155 -45q-125 0 -203 90q-66 78 -66 241q0 154 101 242q84 74 247 74h97v151q0 59 -28 91t-77 32 t-76 -33q-29 -35 -28 -98h-217q0 141 92 234q88 88 227 88q115 0 180 -49q27 -23 39 -43q20 25 33 34q72 57 186 58q152 0 232 -86q16 -18 30.5 -40t23.5 -50l17 -51q7 -22 12 -61.5t8 -60t4 -68.5t2 -64.5t1 -70.5v-67zM500 317v160h-72q-78 0 -113 -33q-43 -39 -43 -120 q0 -150 113 -150q49 0 82 38.5t33 104.5zM944 637q0 184 -31 223q-33 43 -82 43t-81 -43q-33 -41 -33 -223h227z" />
<glyph unicode="&#xe7;" horiz-adv-x="786" d="M729 317q-10 -170 -94 -254q-80 -80 -229 -79q-174 0 -256 114q-76 102 -76 443q0 336 76 442q82 113 256 113q145 0 227 -76q84 -82 96 -256h-215q-4 70 -29 100q-27 39 -79 39q-55 0 -84 -45q-31 -53 -31 -317.5t31 -319.5q27 -43 84 -43q53 0 79 37q25 31 29 102h215z M498 -82l-109 -315h-156l125 315h140z" />
<glyph unicode="&#xe8;" d="M834 477h-445q0 -209 33 -256q29 -43 84 -43q49 0 82 43q27 33 26 96h215q-6 -156 -90 -247q-78 -86 -233 -86q-145 0 -234 88q-63 63 -81.5 175.5t-18.5 293t18.5 293t81.5 176.5q86 86 232 86q152 0 231 -86q16 -18 30.5 -40t24.5 -50l16 -51q7 -22 12 -61.5t8 -60 t4 -68.5t2.5 -64.5t1.5 -70.5v-67zM616 637q0 184 -30 223q-33 43 -82 43t-82 -43q-33 -41 -33 -223h227zM549 1202h-152l-178 285h182z" />
<glyph unicode="&#xe9;" horiz-adv-x="806" d="M735 477h-444q0 -209 33 -256q29 -43 84 -43q49 0 81 43q27 33 27 96h215q-6 -156 -90 -247q-78 -86 -233 -86q-145 0 -234 88q-63 63 -81.5 175.5t-18.5 293t18.5 293t81.5 176.5q86 86 232 86q152 0 231 -86q16 -18 30.5 -40t23.5 -50l17 -51q7 -22 12 -61.5t8 -60 t4 -68.5t2 -64.5t1 -70.5v-67zM518 637q0 184 -31 223q-33 43 -82 43t-81 -43q-33 -41 -33 -223h227zM645 1487l-178 -285h-152l148 285h182z" />
<glyph unicode="&#xea;" horiz-adv-x="806" d="M735 477h-444q0 -209 33 -256q29 -43 84 -43q49 0 81 43q27 33 27 96h215q-6 -156 -90 -247q-78 -86 -233 -86q-145 0 -234 88q-63 63 -81.5 175.5t-18.5 293t18.5 293t81.5 176.5q86 86 232 86q152 0 231 -86q16 -18 30.5 -40t23.5 -50l17 -51q7 -22 12 -61.5t8 -60 t4 -68.5t2 -64.5t1 -70.5v-67zM696 1202h-166l-122 168l-121 -168h-166l203 285h170zM518 637q0 184 -31 223q-33 43 -82 43t-81 -43q-33 -41 -33 -223h227z" />
<glyph unicode="&#xeb;" horiz-adv-x="806" d="M735 477h-444q0 -209 33 -256q29 -43 84 -43q49 0 81 43q27 33 27 96h215q-6 -156 -90 -247q-78 -86 -233 -86q-145 0 -234 88q-63 63 -81.5 175.5t-18.5 293t18.5 293t81.5 176.5q86 86 232 86q152 0 231 -86q16 -18 30.5 -40t23.5 -50l17 -51q7 -22 12 -61.5t8 -60 t4 -68.5t2 -64.5t1 -70.5v-67zM518 637q0 184 -31 223q-33 43 -82 43t-81 -43q-33 -41 -33 -223h227zM690 1223h-205v204h205v-204zM332 1223h-205v204h205v-204z" />
<glyph unicode="&#xec;" horiz-adv-x="430" d="M326 0h-217v1079h217v-1079zM315 1202h-151l-178 285h182z" />
<glyph unicode="&#xed;" horiz-adv-x="430" d="M326 0h-217v1079h217v-1079zM457 1487l-181 -285h-151l147 285h185z" />
<glyph unicode="&#xee;" horiz-adv-x="430" d="M326 0h-217v1079h217v-1079zM504 1202h-166l-121 168l-123 -168h-166l203 285h170z" />
<glyph unicode="&#xef;" horiz-adv-x="430" d="M326 0h-217v1079h217v-1079zM498 1223h-205v204h205v-204zM139 1223h-205v204h205v-204z" />
<glyph unicode="&#xf0;" horiz-adv-x="819" d="M741 498q0 -305 -79 -408q-82 -106 -254 -106q-170 0 -252 106q-80 102 -80 408q0 186 14 283.5t64 152.5q70 78 192 78q72 0 123 -35l-61 188h-154v160h104l-47 133h219l45 -133h144v-160h-96l63 -207q55 -184 55 -460zM524 502q0 233 -32 284q-25 41 -84 41 q-57 0 -82 -41q-33 -51 -33 -284q0 -231 33 -283q25 -41 82 -41q59 0 84 41q32 52 32 283z" />
<glyph unicode="&#xf1;" horiz-adv-x="854" d="M754 0h-217v776q0 61 -30 93t-77 32t-76.5 -31.5t-29.5 -93.5v-776h-218v1079h209v-80q37 49 72 68q47 29 109 29q125 0 196 -84q61 -70 62 -234v-778zM733 1313q-94 -94 -182 -94q-68 0 -127 34q-51 31 -90 31q-47 0 -94 -47l-93 94q96 96 181 96q68 0 127 -34 q51 -31 90 -31q45 0 92 47z" />
<glyph unicode="&#xf2;" d="M836 541q0 -336 -76 -443q-82 -115 -256 -114.5t-256 114.5q-76 106 -76 442.5t76 442.5q82 113 256 113t256 -113q76 -106 76 -442zM618 541q0 264 -30 317q-29 45 -84 45t-84 -45q-31 -53 -31 -317q0 -266 31 -320q27 -43 84 -43t84 43q30 54 30 320zM551 1202h-152 l-178 285h182z" />
<glyph unicode="&#xf3;" horiz-adv-x="811" d="M737 541q0 -336 -75 -443q-82 -115 -256.5 -114.5t-255.5 114.5q-76 106 -76 442.5t76 442.5q82 113 256 113t256 -113q75 -106 75 -442zM520 541q0 264 -31 317q-29 45 -84 45t-83 -45q-31 -53 -31 -317q0 -266 31 -320q27 -43 84 -43t83 43q31 54 31 320zM645 1487 l-178 -285h-152l148 285h182z" />
<glyph unicode="&#xf4;" horiz-adv-x="811" d="M737 541q0 -336 -75 -443q-82 -115 -256.5 -114.5t-255.5 114.5q-76 106 -76 442.5t76 442.5q82 113 256 113t256 -113q75 -106 75 -442zM520 541q0 264 -31 317q-29 45 -84 45t-83 -45q-31 -53 -31 -317q0 -266 31 -320q27 -43 84 -43t83 43q31 54 31 320zM696 1202 h-166l-122 168l-121 -168h-166l203 285h170z" />
<glyph unicode="&#xf5;" horiz-adv-x="811" d="M737 541q0 -336 -75 -443q-82 -115 -256.5 -114.5t-255.5 114.5q-76 106 -76 442.5t76 442.5q82 113 256 113t256 -113q75 -106 75 -442zM520 541q0 264 -31 317q-29 45 -84 45t-83 -45q-31 -53 -31 -317q0 -266 31 -320q27 -43 84 -43t83 43q31 54 31 320zM707 1313 q-94 -94 -183 -94q-68 0 -127 34q-51 31 -90 31q-47 0 -94 -47l-92 94q96 96 180 96q68 0 127 -34q51 -31 90 -31q45 0 92 47z" />
<glyph unicode="&#xf6;" horiz-adv-x="811" d="M737 541q0 -336 -75 -443q-82 -115 -256.5 -114.5t-255.5 114.5q-76 106 -76 442.5t76 442.5q82 113 256 113t256 -113q75 -106 75 -442zM520 541q0 264 -31 317q-29 45 -84 45t-83 -45q-31 -53 -31 -317q0 -266 31 -320q27 -43 84 -43t83 43q31 54 31 320zM690 1223 h-205v204h205v-204zM332 1223h-205v204h205v-204z" />
<glyph unicode="&#xf7;" horiz-adv-x="935" d="M846 469h-756v207h756v-207zM596 825h-254v252h254v-252zM596 66h-254v251h254v-251z" />
<glyph unicode="&#xf8;" horiz-adv-x="806" d="M752 1169l-84 -194q70 -102 69 -434q0 -336 -75 -443q-82 -115 -256 -114q-96 0 -158 30l-43 -104h-146l84 196q-70 102 -69 435q0 336 76 442q82 113 256 113q96 0 157 -31l43 104h146zM481 879q-29 33 -75 32q-57 0 -84 -45q-33 -55 -33 -325q0 -92 6 -123zM522 541 q0 100 -6 121l-186 -461q29 -33 76 -33q55 0 83 47q33 56 33 326z" />
<glyph unicode="&#xf9;" horiz-adv-x="854" d="M748 0h-207v82q-35 -47 -74 -68q-51 -31 -109 -30q-125 0 -196 84q-61 70 -62 233v778h217v-776q0 -61 30 -93t77 -32t76.5 32t29.5 93v776h218v-1079zM510 1202h-152l-178 285h182z" />
<glyph unicode="&#xfa;" horiz-adv-x="854" d="M748 0h-207v82q-35 -47 -74 -68q-51 -31 -109 -30q-125 0 -196 84q-61 70 -62 233v778h217v-776q0 -61 30 -93t77 -32t76.5 32t29.5 93v776h218v-1079zM686 1487l-178 -285h-152l148 285h182z" />
<glyph unicode="&#xfb;" horiz-adv-x="854" d="M748 0h-207v82q-35 -47 -74 -68q-51 -31 -109 -30q-125 0 -196 84q-61 70 -62 233v778h217v-776q0 -61 30 -93t77 -32t76.5 32t29.5 93v776h218v-1079zM717 1202h-166l-123 168l-121 -168h-166l203 285h170z" />
<glyph unicode="&#xfc;" horiz-adv-x="854" d="M748 0h-207v82q-35 -47 -74 -68q-51 -31 -109 -30q-125 0 -196 84q-61 70 -62 233v778h217v-776q0 -61 30 -93t77 -32t76.5 32t29.5 93v776h218v-1079zM350 1223h-205v204h205v-204zM709 1223h-205v204h205v-204z" />
<glyph unicode="&#xfd;" horiz-adv-x="782" d="M772 1079l-303 -1216q-37 -150 -134 -196t-269 -46v193q57 2 87.5 7t61.5 30.5t43 74.5l18 76l-268 1077h240l143 -735l141 735h240zM631 1487l-178 -285h-152l148 285h182z" />
<glyph unicode="&#xfe;" horiz-adv-x="841" d="M766 540.5q0 -200.5 -14.5 -306t-63.5 -166.5q-70 -84 -188 -84q-63 0 -111 28q-37 20 -63 58v-449h-217v1837h208v-459q10 16 33 38t39 30q47 29 111 29q121 0 188 -84q49 -61 63.5 -166t14.5 -305.5zM549 541q0 262 -33 317q-29 45 -82 45q-45 0 -74 -29 q-35 -35 -34 -102v-465q0 -68 34 -102q27 -27 74 -27q53 0 82 43q33 56 33 320z" />
<glyph unicode="&#xff;" horiz-adv-x="782" d="M772 1079l-303 -1216q-37 -150 -134 -196t-269 -46v193q57 2 87.5 7t61.5 30.5t43 74.5l18 76l-268 1077h240l143 -735l141 735h240zM317 1223h-204v204h204v-204zM676 1223h-205v204h205v-204z" />
<glyph unicode="&#x152;" horiz-adv-x="1314" d="M1237 0h-590v55q-72 -72 -184 -71q-176 0 -273 122q-63 82 -84.5 230.5t-21.5 392.5q0 252 20.5 397.5t85.5 225.5q98 123 273 123q117 0 184 -72v55h590v-207h-383v-413h330v-207h-330v-424h383v-207zM633 729q0 219 -9.5 326.5t-39.5 156.5q-35 55 -111 56 q-74 0 -108 -56q-51 -82 -51.5 -483t51.5 -483q35 -55 108 -56q76 0 111 56q31 49 40 156.5t9 326.5z" />
<glyph unicode="&#x153;" horiz-adv-x="1255" d="M1184 477h-447q0 -209 33 -256q29 -43 84 -43q49 0 82 43q27 33 27 96h215q-6 -156 -91 -247q-78 -86 -233 -86q-109 0 -186 63q-14 10 -35 39q-12 -20 -37 -41q-78 -61 -190 -61q-174 0 -256 114q-76 106 -76 442.5t76 442.5q82 113 256 113q119 0 194 -64 q18 -16 31 -37q16 23 39 39q78 61 182 62q152 0 231 -86q45 -47 69 -135.5t28 -161t4 -193.5v-43zM520 541q0 264 -31 317q-29 45 -84 45t-83 -45q-31 -53 -31 -317q0 -266 31 -320q27 -43 84 -43t83 43q31 54 31 320zM967 637q0 182 -33 223q-33 43 -82 43t-82 -43 q-33 -41 -33 -223h230z" />
<glyph unicode="&#x178;" horiz-adv-x="796" d="M795 1458l-283 -887v-571h-229v571l-283 887h254l143 -577l146 577h252zM322 1577h-205v205h205v-205zM680 1577h-205v205h205v-205z" />
<glyph unicode="&#x2c6;" d="M696 1202h-166l-122 168l-121 -168h-166l203 285h170z" />
<glyph unicode="&#x2dc;" d="M709 1313q-94 -94 -183 -94q-68 0 -127 34q-51 31 -90 31q-47 0 -94 -47l-92 94q96 96 180 96q68 0 127 -34q51 -31 90 -31q45 0 92 47z" />
<glyph unicode="&#x2000;" horiz-adv-x="987" />
<glyph unicode="&#x2001;" horiz-adv-x="1976" />
<glyph unicode="&#x2002;" horiz-adv-x="987" />
<glyph unicode="&#x2003;" horiz-adv-x="1976" />
<glyph unicode="&#x2004;" horiz-adv-x="657" />
<glyph unicode="&#x2005;" horiz-adv-x="493" />
<glyph unicode="&#x2006;" horiz-adv-x="327" />
<glyph unicode="&#x2007;" horiz-adv-x="327" />
<glyph unicode="&#x2008;" horiz-adv-x="245" />
<glyph unicode="&#x2009;" horiz-adv-x="395" />
<glyph unicode="&#x200a;" horiz-adv-x="108" />
<glyph unicode="&#x2010;" horiz-adv-x="604" d="M510 487h-414v207h414v-207z" />
<glyph unicode="&#x2011;" horiz-adv-x="604" d="M510 487h-414v207h414v-207z" />
<glyph unicode="&#x2012;" horiz-adv-x="604" d="M510 487h-414v207h414v-207z" />
<glyph unicode="&#x2013;" horiz-adv-x="935" d="M846 487h-756v207h756v-207z" />
<glyph unicode="&#x2014;" horiz-adv-x="1456" d="M1362 487h-1266v207h1266v-207z" />
<glyph unicode="&#x2018;" horiz-adv-x="468" d="M352 1217h-235v241l235 174v-415z" />
<glyph unicode="&#x2019;" horiz-adv-x="468" d="M352 1217l-235 -177v418h235v-241z" />
<glyph unicode="&#x201a;" horiz-adv-x="468" d="M352 0l-235 -174v416h235v-242z" />
<glyph unicode="&#x201c;" horiz-adv-x="856" d="M739 1217h-237v241l237 174v-415zM352 1217h-235v241l235 174v-415z" />
<glyph unicode="&#x201d;" horiz-adv-x="856" d="M739 1217l-237 -177v418h237v-241zM352 1217l-235 -177v418h235v-241z" />
<glyph unicode="&#x201e;" horiz-adv-x="856" d="M739 0l-237 -174v416h237v-242zM352 0l-235 -174v416h235v-242z" />
<glyph unicode="&#x2022;" horiz-adv-x="913" d="M791 684q0 -139 -98.5 -236.5t-236 -97.5t-235.5 97.5t-98 236.5t98 236.5t235.5 97.5t236 -97.5t98.5 -236.5z" />
<glyph unicode="&#x2026;" horiz-adv-x="1339" d="M1227 0h-252v252h252v-252zM367 0h-252v252h252v-252zM797 0h-252v252h252v-252z" />
<glyph unicode="&#x202f;" horiz-adv-x="395" />
<glyph unicode="&#x2039;" horiz-adv-x="473" d="M379 55l-330 510l330 508v-323l-125 -185l125 -188v-322z" />
<glyph unicode="&#x203a;" horiz-adv-x="473" d="M424 565l-328 -510v322l123 188l-123 185v323z" />
<glyph unicode="&#x205f;" horiz-adv-x="493" />
<glyph unicode="&#x20ac;" horiz-adv-x="1019" d="M940 387q-6 -207 -121 -311q-102 -92 -252 -92q-172 0 -280 122q-96 109 -103 375h-118v166h114v164h-114v166h118q6 264 103 375q109 123 280 123q156 0 256 -95q111 -104 117 -307h-229q-4 195 -144 195q-78 0 -112 -56q-37 -57 -39 -235h217v-166h-223v-164h223v-166 h-217q2 -180 41 -235q37 -55 110 -56q139 0 144 197h229z" />
<glyph unicode="&#x2122;" horiz-adv-x="1292" d="M1190 563h-143v539l-115 -350h-82l-113 344v-533h-143v895h129l168 -461l170 461h129v-895zM492 1325h-150v-762h-143v762h-148v133h441v-133z" />
<glyph unicode="&#xe000;" horiz-adv-x="1080" d="M0 1080h1080v-1080h-1080v1080z" />
<glyph unicode="&#xfb01;" horiz-adv-x="948" d="M516 913h-149v-913h-217v913h-111v166h111v68q0 174 108 260q88 68 258 68v-195q-78 0 -113.5 -34t-35.5 -111v-56h149v-166zM842 0h-217v1079h217v-1079zM854 1217h-240v239h240v-239z" />
<glyph unicode="&#xfb02;" horiz-adv-x="1026" d="M516 913h-149v-913h-217v913h-111v166h111v68q0 174 108 260q88 68 258 68v-195q-150 0 -149 -145v-56h149v-166zM989 0q-170 0 -254 66q-111 84 -110 262v1130h217v-1118q0 -145 147 -145v-195z" />
<glyph unicode="&#xfb03;" horiz-adv-x="1540" d="M1434 0h-218v1051h218v-1051zM1444 1217h-240v239h240v-239zM1071 913h-149v-913h-217v913h-111v166h111v64q0 174 108 260q88 68 258 67v-194q-150 0 -149 -146v-51h149v-166zM516 913h-149v-913h-217v913h-111v166h111v64q0 174 108 260q88 68 258 67v-194 q-150 0 -149 -146v-51h149v-166z" />
<glyph unicode="&#xfb04;" horiz-adv-x="1609" d="M1575 0q-172 0 -256 66q-109 82 -109 262v1130h217v-1118q0 -145 148 -145v-195zM1071 913h-149v-913h-217v913h-111v166h111v64q0 174 108 260q88 68 258 67v-194q-150 0 -149 -146v-51h149v-166zM516 913h-149v-913h-217v913h-111v166h111v64q0 174 108 260 q88 68 258 67v-194q-150 0 -149 -146v-51h149v-166z" />
</font>
</defs>
</svg>
