<?xml version="1.0" standalone="no"?>
<!DOCTYPE svg PUBLIC "-//W3C//DTD SVG 1.1//EN" "http://www.w3.org/Graphics/SVG/1.1/DTD/svg11.dtd" >
<svg xmlns="http://www.w3.org/2000/svg">
<metadata>
This is a custom SVG webfont generated by Font Squirrel.
Copyright   : 2000 AlbertJan Pool published by Fontshop International for the FontFont library
</metadata>
<defs>
<font id="webfontDkBw4OFN" horiz-adv-x="768" >
<font-face units-per-em="2048" ascent="1638" descent="-410" />
<missing-glyph horiz-adv-x="382" />
<glyph unicode=" "  horiz-adv-x="382" />
<glyph unicode="&#x09;" horiz-adv-x="382" />
<glyph unicode="&#xa0;" horiz-adv-x="382" />
<glyph unicode="!" horiz-adv-x="495" d="M356 395h-166v1063h166v-1063zM375 0h-203v203h203v-203z" />
<glyph unicode="&#x22;" horiz-adv-x="808" d="M670 1065h-170v393h170v-393zM307 1065h-170v393h170v-393z" />
<glyph unicode="#" horiz-adv-x="1134" d="M1030 893h-168l-39 -297h148v-156h-172l-60 -440h-168l60 440h-215l-60 -440h-168l60 440h-144v156h168l39 297h-147l-2 156h172l55 409h170l-55 -409h213l55 409h170l-57 -409h143zM694 893h-215l-39 -297h213z" />
<glyph unicode="$" horiz-adv-x="888" d="M801 391q0 -225 -92 -317q-70 -70 -187 -84v-223h-157v221q-127 16 -197 86q-49 49 -69.5 118.5t-20.5 188.5h176q0 -139 49 -191q20 -25 62 -36v536l-78 33q-113 47 -156 124t-43 240q0 199 111 299q68 61 166 80v185h157v-185q113 -16 178 -80q96 -94 97 -299h-176 q0 121 -46 177q-20 25 -53 39v-482l74 -30q121 -49 163 -135.5t42 -264.5zM625 387q0 111 -20.5 163t-82.5 85v-479q35 12 56 37q47 51 47 194zM365 877v426q-29 -12 -50 -35q-51 -57 -51 -174q0 -96 20 -141t81 -76z" />
<glyph unicode="%" horiz-adv-x="1382" d="M1278 209q0 -104 -65.5 -164.5t-166 -60.5t-166 60t-65.5 165v315q0 104 65.5 165t166 61t166 -60.5t65.5 -165.5v-315zM565 934q0 -104 -65.5 -164.5t-166 -60.5t-165 60t-64.5 165v315q0 104 64.5 165t165 61t166 -60.5t65.5 -165.5v-315zM1012 1458l-508 -1458h-133 l508 1458h133zM1139 211v309q0 104 -92.5 104.5t-92.5 -104.5v-309q0 -104 92.5 -104t92.5 104zM426 938v309q0 104 -92 105q-90 0 -90 -105v-309q0 -104 90 -104q92 0 92 104z" />
<glyph unicode="&#x26;" horiz-adv-x="1007" d="M1001 0h-178l-98 150q-72 -84 -143.5 -125t-173.5 -41q-145 0 -239.5 98t-94.5 264q0 125 56 229.5t179 221.5q-96 133 -132 206.5t-36 159.5q0 139 77 224.5t204 85.5q137 0 211 -81t74 -210q0 -123 -48.5 -213t-156.5 -197l223 -338q63 121 78 307h147 q-16 -262 -133 -452zM641 281l-250 383q-158 -158 -158 -304q0 -98 51.5 -161.5t137.5 -63.5q110 1 219 146zM553 1178q0 63 -36 104t-93 41q-61 0 -95 -45t-34 -111q0 -92 123 -262q72 74 103.5 131.5t31.5 141.5z" />
<glyph unicode="'" horiz-adv-x="446" d="M309 1065h-172v393h172v-393z" />
<glyph unicode="(" horiz-adv-x="499" d="M416 -80l-113 -113q-113 113 -149 181q-45 80 -45 221v1040q0 141 45 221q37 68 149 181l113 -113q-88 -88 -111 -131q-31 -61 -31 -170v-1016q0 -109 31 -170q23 -43 111 -131z" />
<glyph unicode=")" horiz-adv-x="499" d="M391 209q0 -141 -45 -221q-37 -68 -149 -181l-113 113q88 88 111 131q31 61 30 170v1016q0 109 -30 170q-23 43 -111 131l113 113q113 -113 149 -181q45 -80 45 -221v-1040z" />
<glyph unicode="*" horiz-adv-x="804" d="M709 1008l-62 -107l-188 115l6 -258h-125l8 258l-190 -115l-62 107l195 104l-195 102l62 109l190 -117l-8 258h125l-6 -258l188 117l62 -109l-197 -102z" />
<glyph unicode="+" horiz-adv-x="909" d="M815 500h-280v-281h-158v281h-283v157h283v283h158v-283h280v-157z" />
<glyph unicode="," horiz-adv-x="423" d="M305 -115l-188 -139v459h188v-320z" />
<glyph unicode="-" horiz-adv-x="610" d="M506 500h-402v157h402v-157z" />
<glyph unicode="." horiz-adv-x="442" d="M324 0h-203v203h203v-203z" />
<glyph unicode="/" horiz-adv-x="557" d="M549 1610l-379 -1762h-162l379 1762h162z" />
<glyph unicode="0" horiz-adv-x="780" d="M682 287q0 -143 -82 -226q-82 -78 -211 -77q-127 0 -209 77q-82 82 -82 226v884q0 143 82 226q82 78 209 78q129 0 211 -78q82 -82 82 -226v-884zM516 281v897q0 72 -36 109.5t-91 37.5t-90 -38t-35 -109v-897q0 -72 35 -110t90 -38t91 38t36 110z" />
<glyph unicode="1" horiz-adv-x="780" d="M516 0h-166v1264l-213 -174v192l213 176h166v-1458z" />
<glyph unicode="2" horiz-adv-x="780" d="M688 0h-588v139l357 756q66 143 65 283q0 72 -34.5 109.5t-90 37.5t-91.5 -38t-36 -109v-99h-166v95q0 141 82 223q82 78 211 78q127 0 205 -74q86 -82 86 -230q0 -150 -84 -329l-325 -692h409v-150z" />
<glyph unicode="3" horiz-adv-x="780" d="M684 410q0 -143 -16.5 -217t-73.5 -132q-78 -78 -209 -77q-127 0 -209 77q-84 84 -84 224v94h166v-98q0 -72 36 -110t91 -38q57 0 90 39q43 51 43 245.5t-43 248.5q-31 41 -90 41h-78v139h78q47 0 80 33q41 43 41 208q0 158 -37 203q-31 35 -84 35t-85 -37t-32 -106v-103 h-166v95q0 145 80 225q80 76 203 76q127 0 201 -74q86 -86 86 -303q0 -168 -39 -240q-29 -49 -80 -82q55 -37 82 -80q29 -49 39 -106t10 -180z" />
<glyph unicode="4" horiz-adv-x="780" d="M723 240h-102v-240h-166v240h-396v149l373 1069h160l-363 -1069h226v334h166v-334h102v-149z" />
<glyph unicode="5" horiz-adv-x="780" d="M688 477q0 -180 -15.5 -264t-72.5 -145q-78 -84 -211 -84q-129 0 -209 75q-84 84 -84 226v84h166v-99q0 -76 35 -114.5t92 -38.5q59 0 92 45q41 57 41 303q0 231 -39 291q-33 49 -94 49q-55 0 -91 -40t-36 -108v-49h-158v850h566v-149h-414v-453q31 45 72 70 q47 27 108 26q113 0 182 -82q43 -53 56.5 -139t13.5 -254z" />
<glyph unicode="6" horiz-adv-x="780" d="M688 436q0 -152 -16.5 -226.5t-57.5 -127.5q-74 -98 -225 -98q-147 0 -223 98q-43 57 -58.5 131t-15.5 223q0 211 60 367l245 655h170l-237 -608q45 35 104 35q109 0 180 -84q41 -49 57.5 -123t16.5 -242zM522 438q0 217 -41 267q-35 41 -92 40q-55 0 -90 -40 q-41 -49 -41 -266.5t41 -266.5q33 -39 90 -39q59 0 92 39q41 49 41 266z" />
<glyph unicode="7" horiz-adv-x="780" d="M694 1321l-385 -1321h-168l385 1309h-282v-215h-162v364h612v-137z" />
<glyph unicode="8" horiz-adv-x="780" d="M688 406q0 -143 -16.5 -215t-71.5 -128q-76 -80 -211 -79q-133 0 -209 79q-55 55 -71.5 127t-16.5 216q0 121 9.5 178t37.5 104q27 45 84 82q-53 37 -80 84q-41 76 -41 238q0 121 18.5 189.5t67.5 117.5q76 76 201 76q127 0 203 -76q49 -49 67.5 -118t18.5 -189 q0 -162 -41 -238q-27 -47 -80 -84q53 -35 82 -82q49 -81 49 -282zM522 414q0 113 -8 164t-35 84q-33 39 -90 38q-53 0 -88 -38q-27 -33 -35 -84.5t-8 -163.5q0 -188 43 -244q29 -37 88 -37q61 0 90 37q43 54 43 244zM512 1085q0 160 -41 207q-31 33 -82 33t-82 -33 q-39 -43 -39 -207q0 -172 43 -215q29 -29 78 -28.5t80 30.5q43 43 43 213z" />
<glyph unicode="9" horiz-adv-x="780" d="M688 1022q0 -211 -59 -367l-246 -655h-170l238 608q-45 -35 -105 -35q-109 0 -180 84q-41 49 -57.5 123t-16.5 242q0 152 16.5 226.5t57.5 127.5q74 98 225 99q147 0 223 -99q43 -57 58.5 -130.5t15.5 -223.5zM522 1020q0 217 -41 266q-33 39 -92 39q-57 0 -90 -39 q-41 -49 -41 -266t41 -266q35 -41 90 -41q57 0 92 41q41 49 41 266z" />
<glyph unicode=":" horiz-adv-x="495" d="M375 668h-203v202h203v-202zM375 0h-203v203h203v-203z" />
<glyph unicode=";" horiz-adv-x="495" d="M369 -115l-189 -139v459h189v-320zM375 668h-203v202h203v-202z" />
<glyph unicode="&#x3c;" horiz-adv-x="780" d="M711 154l-641 372v125l641 375v-184l-443 -252l443 -252v-184z" />
<glyph unicode="=" horiz-adv-x="909" d="M815 655h-721v158h721v-158zM815 324h-721v157h721v-157z" />
<glyph unicode="&#x3e;" horiz-adv-x="780" d="M711 526l-641 -372v184l442 252l-442 252v184l641 -375v-125z" />
<glyph unicode="?" horiz-adv-x="819" d="M741 1096q0 -152 -63 -244l-121 -174q-45 -66 -45 -143v-140h-166v160q0 86 57 172l119 174q53 78 53 199q0 127 -47 180q-37 41 -102 41q-59 0 -98 -39q-45 -47 -45 -168h-166q0 184 88 270q90 86 221 86q141 0 225 -84q90 -89 90 -290zM530 0h-202v203h202v-203z" />
<glyph unicode="@" horiz-adv-x="1150" d="M1032 0h-160v82q-23 -39 -65 -66q-53 -33 -115 -32q-113 0 -180 77q-63 70 -63 220v419q0 152 63 222q68 76 180 75q61 0 115 -30q39 -27 59 -58v217q0 190 -176 191h-244q-84 0 -130 -48t-46 -143v-882q0 -94 58 -150l-119 -117q-104 96 -105 263v903q0 145 89 233 q82 82 221 82h309q139 0 221 -82q88 -88 88 -233v-1143zM866 281v421q0 72 -34.5 110t-90 38t-91.5 -38t-36 -110v-421q0 -72 36 -110t91.5 -38t90 38t34.5 110z" />
<glyph unicode="A" horiz-adv-x="868" d="M858 0h-186l-70 344h-338l-69 -344h-185l340 1458h170zM569 502l-135 672l-137 -672h272z" />
<glyph unicode="B" horiz-adv-x="909" d="M807 420q0 -238 -92 -332q-86 -88 -271 -88h-313v1458h315q180 0 267 -88q84 -90 84 -299q0 -176 -80 -256q-41 -41 -84 -55q53 -16 90 -55q84 -88 84 -285zM631 420q0 137 -48 199.5t-149 62.5h-127v-524h127q102 0 149.5 58.5t47.5 203.5zM621 1067q0 129 -45.5 181 t-143.5 52h-125v-466h125q96 0 142.5 55t46.5 178z" />
<glyph unicode="C" horiz-adv-x="866" d="M791 360q-4 -197 -113 -297q-86 -80 -225 -79q-156 0 -250 104q-70 78 -88.5 208t-18.5 433t18.5 433t88.5 208q94 104 250 105q141 0 231 -86q100 -98 104 -291h-176q0 111 -45 168q-41 51 -114 51q-78 0 -119 -55q-37 -51 -49.5 -159t-12.5 -374t12.5 -373.5 t49.5 -158.5q41 -55 119 -56q72 0 114 54q47 59 47 165h177z" />
<glyph unicode="D" horiz-adv-x="917" d="M821 729q0 -305 -16.5 -428t-85.5 -199q-96 -102 -250 -102h-338v1458h338q154 0 250 -102q70 -76 86 -199t16 -428zM645 729q0 264 -10 365.5t-49 150.5q-41 55 -123 55h-156v-1142h156q82 0 123 55q39 49 49 150.5t10 365.5z" />
<glyph unicode="E" horiz-adv-x="778" d="M694 0h-563v1458h563v-158h-387v-489h334v-158h-334v-495h387v-158z" />
<glyph unicode="F" d="M694 1300h-387v-489h334v-158h-334v-653h-176v1458h563v-158z" />
<glyph unicode="G" horiz-adv-x="888" d="M791 350q0 -176 -94.5 -271t-243.5 -95q-156 0 -250 104q-70 78 -88.5 208t-18.5 433t18.5 433t88.5 208q94 104 250 105q145 0 235 -91q98 -102 103 -288h-177q0 221 -161 221q-78 0 -119 -55q-37 -51 -49.5 -159t-12.5 -374t12.5 -373.5t49.5 -158.5q41 -55 119 -56 q76 0 118.5 56.5t42.5 146.5v291h-161v147h338v-432z" />
<glyph unicode="H" horiz-adv-x="937" d="M807 0h-176v662h-324v-662h-176v1458h176v-637h324v637h176v-1458z" />
<glyph unicode="I" horiz-adv-x="440" d="M307 0h-176v1458h176v-1458z" />
<glyph unicode="J" horiz-adv-x="739" d="M621 348q0 -172 -93 -266q-94 -98 -258 -98q-160 0 -260 110l125 117q51 -70 135 -70q76 0 125 54.5t49 152.5v1110h177v-1110z" />
<glyph unicode="K" horiz-adv-x="899" d="M883 0h-191l-258 659l-127 -251v-408h-176v1458h176v-739l352 739h181l-295 -602z" />
<glyph unicode="L" horiz-adv-x="739" d="M694 0h-563v1458h176v-1300h387v-158z" />
<glyph unicode="M" horiz-adv-x="1183" d="M1051 0h-177v1038l-231 -682h-108l-228 666v-1022h-176v1458h166l295 -811l293 811h166v-1458z" />
<glyph unicode="N" horiz-adv-x="976" d="M844 0h-160l-377 997v-997h-176v1458h164l375 -997l-2 997h176v-1458z" />
<glyph unicode="O" horiz-adv-x="905" d="M809 729q0 -307 -17.5 -435t-86.5 -206q-94 -104 -252 -104q-156 0 -250 104q-70 78 -88.5 208t-18.5 433t18.5 433t88.5 208q94 104 250 105q158 0 252 -105q70 -78 87 -206t17 -435zM633 729q0 266 -12.5 373.5t-49.5 159.5q-41 55 -118.5 55t-118.5 -55 q-37 -51 -49.5 -159t-12.5 -374t12.5 -373.5t49.5 -158.5q41 -55 118.5 -55.5t118.5 55.5q37 51 49.5 158.5t12.5 373.5z" />
<glyph unicode="P" horiz-adv-x="890" d="M805 1034q0 -225 -82 -326.5t-264 -101.5h-152v-606h-176v1458h328q174 0 260 -95.5t86 -328.5zM629 1032q0 133 -36 200.5t-130 67.5h-156v-536h156q94 0 130 67.5t36 200.5z" />
<glyph unicode="Q" horiz-adv-x="905" d="M862 51l-84 -100l-116 98q-82 -66 -209 -65q-156 0 -250 104q-70 78 -88.5 208t-18.5 433t18.5 433t88.5 208q94 104 250 105q158 0 252 -105q70 -78 87 -206t17 -435q0 -260 -11.5 -381t-52.5 -198zM633 729q0 270 -11.5 376.5t-50.5 158.5q-39 53 -118.5 53t-118.5 -53 q-39 -51 -50.5 -158t-11.5 -377t11.5 -376.5t50.5 -157.5q39 -53 119 -54q43 0 73 21l-94 80l84 100l84 -72q33 94 33 459z" />
<glyph unicode="R" horiz-adv-x="931" d="M852 0h-184l-201 627h-160v-627h-176v1458h330q174 0 259 -93t85 -323q0 -154 -41 -245.5t-135 -134.5zM629 1042q0 127 -36 192.5t-130 65.5h-156v-518h156q94 0 130 65.5t36 194.5z" />
<glyph unicode="S" horiz-adv-x="860" d="M772 391q0 -227 -90 -317q-92 -88 -258 -88q-168 0 -256 88q-49 49 -69.5 118.5t-20.5 188.5h176q0 -139 49 -191q41 -45 121 -45q82 0 125 48q47 51 47 194q0 127 -27.5 179t-115.5 89l-166 68q-113 47 -156 124t-43 240q0 199 111 299q90 84 231 84q154 0 242 -84 q96 -94 96 -299h-176q0 121 -45 177q-39 49 -119 49q-72 0 -113 -45q-51 -57 -51 -174q0 -109 26.5 -154t112.5 -82l164 -67q121 -49 163 -135.5t42 -264.5z" />
<glyph unicode="T" horiz-adv-x="751" d="M709 1300h-244v-1300h-176v1300h-246v158h666v-158z" />
<glyph unicode="U" horiz-adv-x="911" d="M793 332q0 -158 -95 -252q-96 -96 -243 -96q-145 0 -242 96q-94 94 -94 252v1126h176v-1136q0 -84 46 -132.5t114 -48.5q70 0 115.5 48.5t45.5 132.5v1136h177v-1126z" />
<glyph unicode="V" horiz-adv-x="827" d="M819 1458l-315 -1458h-180l-316 1458h195l211 -1173l213 1173h192z" />
<glyph unicode="W" horiz-adv-x="1335" d="M1327 1458l-250 -1458h-182l-227 1174l-226 -1174h-182l-252 1458h195l149 -1173l217 1173h197l221 -1173l148 1173h192z" />
<glyph unicode="X" horiz-adv-x="825" d="M795 0h-193l-190 578l-189 -578h-192l278 758l-256 700h193l166 -532l168 532h192l-264 -700z" />
<glyph unicode="Y" horiz-adv-x="722" d="M719 1458l-270 -868v-590h-177v590l-268 868h193l163 -622l164 622h195z" />
<glyph unicode="Z" horiz-adv-x="714" d="M651 0h-588v133l406 1167h-379v158h561v-133l-403 -1167h403v-158z" />
<glyph unicode="[" horiz-adv-x="530" d="M471 -152h-352v1762h352v-146h-186v-1470h186v-146z" />
<glyph unicode="\" horiz-adv-x="557" d="M549 -152h-162l-379 1762h162z" />
<glyph unicode="]" horiz-adv-x="530" d="M412 -152h-353v146h187v1470h-187v146h353v-1762z" />
<glyph unicode="^" horiz-adv-x="931" d="M815 893h-164l-184 407l-184 -407h-166l274 575h150z" />
<glyph unicode="_" horiz-adv-x="909" d="M909 -295h-909v125h909v-125z" />
<glyph unicode="`" horiz-adv-x="772" d="M461 1200h-127l-166 277h151z" />
<glyph unicode="a" d="M659 0h-157v94q-25 -41 -62 -71q-51 -39 -125 -39q-111 0 -182 79q-68 78 -67 238q0 156 94 240q82 72 225 71h109v168q0 152 -125 152q-47 0 -82 -35q-39 -41 -39 -123h-166q0 143 82 225q78 78 205 78q133 0 206 -73q84 -88 84 -234v-770zM494 295v197h-95 q-78 0 -118 -39q-49 -45 -50 -146q0 -178 129 -178q59 0 96.5 46t37.5 120z" />
<glyph unicode="b" horiz-adv-x="792" d="M709 530.5q0 -204.5 -14.5 -309t-61.5 -160.5q-66 -78 -176 -77q-61 0 -115 32q-47 29 -66 66v-82h-159v1458h166v-471q25 39 59 60q49 31 115 30q111 0 176 -78q47 -55 61.5 -159.5t14.5 -309zM543 530q0 166 -7.5 242t-33.5 113q-33 45 -92 45q-53 0 -86 -33 q-41 -41 -41 -123v-485q0 -84 41 -125q31 -31 86 -31q59 0 92 45q27 37 34 112.5t7 239.5z" />
<glyph unicode="c" horiz-adv-x="741" d="M674 295q-4 -160 -82 -238q-72 -74 -209 -73q-150 0 -223 98q-45 59 -61.5 164.5t-16.5 284t16.5 284t61.5 164.5q74 98 223 98q137 0 207 -69q80 -80 84 -242h-164q0 84 -33 123q-35 41 -92 41q-61 0 -94 -45q-27 -37 -35 -116t-8 -238.5t8 -237.5t35 -115 q33 -45 94 -45q55 0 90 39t35 123h164z" />
<glyph unicode="d" horiz-adv-x="792" d="M676 0h-162v82q-20 -39 -63 -66q-53 -33 -115 -32q-111 0 -176 77q-47 55 -62.5 161t-15.5 308.5t15.5 308t62.5 160.5q66 78 176 78q66 0 115 -30q35 -20 59 -60v471h166v-1458zM510 289v485q0 80 -43 123q-33 33 -86 33q-57 0 -90 -45q-27 -37 -35 -116t-8 -238.5 t8 -237.5t35 -115q33 -45 90 -45q55 0 86 31q43 43 43 125z" />
<glyph unicode="e" horiz-adv-x="761" d="M684 492h-436q0 -256 45 -314q37 -45 92 -45q57 0 94 41q37 43 37 121h164q-4 -147 -84 -234q-72 -78 -211 -77q-129 0 -209 82q-57 59 -75.5 167.5t-18.5 296.5q0 190 17.5 299t74.5 166q80 82 209 82q133 0 209 -82q59 -66 75.5 -180t16.5 -323zM518 616q0 219 -41 269 q-37 45 -94 45q-55 0 -92 -45q-43 -51 -43 -269h270z" />
<glyph unicode="f" horiz-adv-x="520" d="M485 932h-163v-932h-166v932h-121v129h121v102q0 160 92 236q80 68 237 67v-149q-164 0 -163 -160v-96h163v-129z" />
<glyph unicode="g" horiz-adv-x="792" d="M676 -27q0 -209 -86 -297q-76 -80 -209 -79q-135 0 -213 75q-80 80 -80 230h164q0 -88 37 -127q35 -35 90 -35t90 39q41 47 41 186v160q-27 -41 -59 -62q-43 -29 -111 -28q-106 0 -174 76q-47 55 -65.5 154.5t-18.5 289.5t18.5 290.5t65.5 155.5q63 76 174 76 q61 0 115 -33q35 -20 59 -59v76h162v-1088zM510 336v438q0 80 -41 121q-35 35 -88 35q-51 0 -90 -45q-43 -55 -43 -329.5t43 -330.5q39 -45 90 -45q53 0 88 35q41 45 41 121z" />
<glyph unicode="h" horiz-adv-x="808" d="M700 0h-165v780q0 72 -36 110t-91.5 38t-90 -38t-34.5 -110v-780h-166v1458h166v-473q25 39 59 59q53 33 115 33q113 0 180 -78q63 -70 63 -219v-780z" />
<glyph unicode="i" horiz-adv-x="399" d="M283 0h-166v1042h166v-1042zM297 1249h-195v193h195v-193z" />
<glyph unicode="j" horiz-adv-x="399" d="M283 -94q0 -160 -95 -238q-78 -66 -231 -65v149q80 0 120 37t40 123v1130h166v-1136zM297 1249h-195v193h195v-193z" />
<glyph unicode="k" horiz-adv-x="808" d="M784 0h-184l-203 500l-114 -183v-317h-166v1458h166v-901l301 504h176l-258 -414z" />
<glyph unicode="l" horiz-adv-x="466" d="M432 0q-152 0 -229 66q-94 78 -94 237v1155h165v-1149q0 -160 158 -159v-150z" />
<glyph unicode="m" horiz-adv-x="1226" d="M1116 0h-166v780q0 72 -34.5 110t-90 38t-90.5 -38t-35 -110v-780h-165v780q0 72 -36 110t-91.5 38t-90 -38t-34.5 -110v-780h-166v1061h159v-82q23 39 66 65q53 33 114.5 33t116 -30.5t86.5 -79.5q41 51 84 77q53 33 121 33q123 0 191 -78q61 -68 61 -219v-780z" />
<glyph unicode="n" horiz-adv-x="808" d="M700 0h-165v780q0 72 -36 110t-91.5 38t-90 -38t-34.5 -110v-780h-166v1061h159v-82q23 39 66 65q53 33 115 33q113 0 180 -78q63 -70 63 -219v-780z" />
<glyph unicode="o" d="M684 530.5q0 -180.5 -15.5 -285t-60.5 -163.5q-74 -98 -225 -98q-150 0 -223 98q-45 59 -61.5 164.5t-16.5 284t16.5 284t61.5 164.5q74 98 223 98q152 0 225 -98q45 -59 60.5 -163.5t15.5 -285zM518 530q0 166 -7 242t-34 113q-33 45 -94 45q-59 0 -92 -45 q-27 -37 -35 -116t-8 -238.5t8 -237.5t35 -115q33 -45 92 -45q61 0 94 45q27 37 34 112.5t7 239.5z" />
<glyph unicode="p" horiz-adv-x="792" d="M709 530.5q0 -204.5 -14.5 -309t-61.5 -160.5q-66 -78 -176 -77q-66 0 -115 30q-35 20 -59 60v-471h-166v1458h159v-82q18 37 66 65q53 33 115 33q111 0 176 -78q47 -55 61.5 -159.5t14.5 -309zM543 530q0 166 -7.5 242t-33.5 113q-33 45 -92 45q-53 0 -86 -33 q-41 -41 -41 -123v-485q0 -84 41 -125q31 -31 86 -31q59 0 92 45q27 37 34 112.5t7 239.5z" />
<glyph unicode="q" horiz-adv-x="792" d="M676 -397h-166v471q-25 -39 -59 -60q-49 -31 -115 -30q-111 0 -176 77q-47 55 -62.5 161t-15.5 308.5t15.5 308t62.5 160.5q66 78 176 78q61 0 115 -33q43 -27 63 -65v82h162v-1458zM510 289v485q0 80 -43 123q-33 33 -86 33q-57 0 -90 -45q-27 -37 -35 -116t-8 -238.5 t8 -237.5t35 -115q33 -45 90 -45q55 0 86 31q43 43 43 125z" />
<glyph unicode="r" horiz-adv-x="557" d="M524 918h-49q-86 0 -139 -52.5t-53 -142.5v-723h-166v1061h159v-113q23 41 74 76q76 53 174 53v-159z" />
<glyph unicode="s" horiz-adv-x="735" d="M672 289q0 -131 -90 -221q-82 -84 -217.5 -84t-212.5 82q-90 92 -91 233h164q0 -82 45 -129q37 -37 95 -37q61 0 100 39q41 41 41 107q0 55 -26.5 96t-94.5 76l-137 69q-102 51 -146 123q-33 57 -32 139q0 127 88 215q80 80 209 80q131 0 206 -76q86 -82 86 -233h-163 q0 86 -39 127q-35 37 -90 37q-57 0 -93 -35q-39 -39 -38 -102q0 -45 18 -78q23 -39 88 -70l135 -67q106 -51 150 -121q45 -68 45 -170z" />
<glyph unicode="t" horiz-adv-x="532" d="M492 0q-166 0 -244 66q-92 76 -92 237v629h-121v129h121v291h166v-291h163v-129h-163v-623q0 -160 170 -159v-150z" />
<glyph unicode="u" horiz-adv-x="808" d="M692 0h-160v82q-23 -39 -65 -66q-53 -33 -115 -32q-113 0 -180 77q-63 70 -63 220v780h165v-780q0 -72 36 -110t91.5 -38t90 38t34.5 110v780h166v-1061z" />
<glyph unicode="v" horiz-adv-x="702" d="M694 1061l-254 -1061h-176l-256 1061h182l162 -799l160 799h182z" />
<glyph unicode="w" horiz-adv-x="1077" d="M1069 1061l-223 -1061h-168l-143 776l-140 -776h-168l-219 1061h189l120 -799l142 799h149l150 -799l123 799h188z" />
<glyph unicode="x" horiz-adv-x="729" d="M702 0h-184l-153 383l-154 -383h-184l241 541l-229 520h184l142 -371l141 371h184l-233 -520z" />
<glyph unicode="y" horiz-adv-x="706" d="M694 1061l-299 -1231q-31 -133 -118 -180t-234 -47v147q82 0 127 26.5t63 96.5l33 129l-258 1059h182l162 -797l160 797h182z" />
<glyph unicode="z" horiz-adv-x="616" d="M567 0h-518v127l334 786h-311v148h495v-127l-334 -784h334v-150z" />
<glyph unicode="{" horiz-adv-x="636" d="M578 -152h-86q-113 0 -184.5 72t-71.5 205v393q0 63 -34 100t-85 37h-58v148h58q51 0 85 37t34 100v393q0 133 71.5 205t184.5 72h86v-150h-58q-51 0 -85 -35.5t-34 -99.5v-379q0 -119 -59 -178q-16 -16 -68 -39q45 -12 68 -39q59 -59 59 -178v-379q0 -63 34 -99t85 -36 h58v-150z" />
<glyph unicode="|" horiz-adv-x="593" d="M381 -152h-166v1762h166v-1762z" />
<glyph unicode="}" horiz-adv-x="636" d="M578 655h-58q-51 0 -84 -36.5t-33 -100.5v-393q0 -131 -73 -205q-72 -72 -185 -72h-86v150h58q53 0 87 36t34 99v379q0 121 57 178q14 14 70 39q-47 14 -70 39q-57 57 -57 178v379q0 63 -34 99t-87 36h-58v150h86q113 0 185 -72q74 -74 73 -205v-393q0 -63 33 -100 t84 -37h58v-148z" />
<glyph unicode="~" horiz-adv-x="909" d="M840 584q-70 -70 -121 -96.5t-111 -26.5q-70 0 -172 51q-82 39 -129 39q-68 0 -135 -68l-100 99q70 70 120 96.5t109 26.5q72 0 174 -52q82 -39 129 -39q63 0 133 70z" />
<glyph unicode="&#xa1;" horiz-adv-x="495" d="M305 -397h-166v1063h166v-1063zM324 858h-203v203h203v-203z" />
<glyph unicode="&#xa2;" horiz-adv-x="751" d="M680 512q-4 -150 -82 -225q-53 -49 -141 -66v-221h-131v219q-100 16 -160 90q-45 55 -60.5 155.5t-15.5 272.5t15.5 272.5t60.5 155.5q59 74 160 90v203h131v-203q86 -12 139 -63q80 -76 84 -231h-164q0 82 -33 118q-16 16 -26 23v-727q16 12 24 20q35 37 35 117h164z M326 375v725q-12 -6 -29 -27q-27 -35 -34 -106.5t-7 -229t7 -229.5t34 -107q17 -20 29 -26z" />
<glyph unicode="&#xa3;" horiz-adv-x="874" d="M809 0h-610v692h-131v127h131v295q0 164 100 262.5t250 98.5q162 0 260 -109l-123 -117q-55 68 -137 68q-74 0 -124 -54.5t-50 -144.5v-299h174v-127h-174v-534h434v-158z" />
<glyph unicode="&#xa4;" horiz-adv-x="970" d="M883 360q-4 -197 -113 -297q-86 -80 -225 -79q-156 0 -250 104q-55 59 -77.5 150.5t-24.5 271.5h-125v127h120v184h-120v127h125q2 180 24.5 271.5t77.5 150.5q94 104 250 105q141 0 231 -86q102 -100 107 -291h-176q-4 219 -162 219q-80 0 -121 -55q-31 -41 -42 -102.5 t-13 -211.5h245v-127h-247v-184h247v-127h-245q2 -150 13 -211t42 -102q45 -55 121 -56q158 0 162 219h176z" />
<glyph unicode="&#xa5;" horiz-adv-x="722" d="M707 1458l-189 -629h113v-127h-152l-35 -112v-82h187v-127h-187v-381h-168v381h-186v127h186v82l-32 112h-154v127h113l-189 629h187l159 -622l162 622h185z" />
<glyph unicode="&#xa6;" horiz-adv-x="593" d="M381 895h-166v713h166v-713zM381 -150h-166v713h166v-713z" />
<glyph unicode="&#xa7;" horiz-adv-x="837" d="M731 555q0 -131 -18.5 -198.5t-73.5 -116.5q-33 -29 -82 -41q84 -53 119 -111q39 -68 39 -156q0 -137 -84 -221q-78 -80 -219 -80q-129 0 -211 82q-86 86 -86 215h168q0 -68 41 -110q33 -37 88 -37q61 0 98 37q35 39 35 104q0 57 -25 92q-29 43 -92 74l-141 70 q-61 31 -90 59q-57 57 -74 128t-17 210q0 129 17.5 192.5t75.5 114.5q39 35 84 45q-86 49 -123 111q-35 59 -35 149q0 125 86 211q80 80 211 80q119 0 196 -67q92 -82 93 -224h-166q0 70 -37 109q-35 35 -86 35q-55 0 -88 -33q-39 -37 -39 -98q0 -53 20 -88q29 -41 84 -70 l142 -70q74 -35 106 -67q53 -55 68.5 -119t15.5 -211zM565 555q0 100 -9 150.5t-42 80.5q-37 37 -96 37q-55 0 -94 -35q-31 -29 -41.5 -81t-10.5 -152q0 -184 52 -233q41 -37 94 -37q59 0 96 37q51 49 51 233z" />
<glyph unicode="&#xa8;" horiz-adv-x="772" d="M309 1231h-168v168h168v-168zM629 1231h-166v168h166v-168z" />
<glyph unicode="&#xa9;" horiz-adv-x="1746" d="M1614 729q0 -307 -217 -524t-524.5 -217t-524.5 217t-217 524t217 524t524.5 217t524.5 -217t217 -524zM1495 729q0 266 -180 449.5t-443 183.5q-260 0 -440 -183.5t-180 -449.5t180 -449.5t440 -183.5q262 0 442.5 183.5t180.5 449.5zM1077 543q-4 -121 -61 -178 q-53 -53 -139 -54q-94 0 -152 68q-37 45 -48 125t-11 223q0 145 11 225t48 125q57 68 152 68q84 0 139 -55q59 -59 61 -177h-110q0 70 -25 99q-25 31 -65 30q-43 0 -68 -32q-33 -47 -33 -283q0 -238 33 -281q27 -35 68 -34.5t65.5 29t24.5 102.5h110z" />
<glyph unicode="&#xaa;" horiz-adv-x="643" d="M549 629h-131v67q-18 -29 -53 -51q-41 -27 -99 -27q-94 0 -151 64q-55 59 -56 182q0 117 82 189q66 55 183 55h86v123q0 51 -27 83t-74 32q-41 0 -69 -29q-29 -31 -29 -96h-139q0 115 69 182q68 63 168 63q109 0 170 -61q70 -70 70 -184v-592zM410 872v134h-76 q-63 0 -92 -27q-43 -39 -43 -109q0 -133 104 -133q45 0 76 38t31 97z" />
<glyph unicode="&#xab;" horiz-adv-x="802" d="M356 86l-303 471l303 469v-260l-139 -209l139 -211v-260zM698 86l-303 471l303 469v-260l-141 -209l141 -211v-260z" />
<glyph unicode="&#xac;" horiz-adv-x="909" d="M807 299h-158v219h-547v158h705v-377z" />
<glyph unicode="&#xad;" horiz-adv-x="610" d="M506 500h-402v157h402v-157z" />
<glyph unicode="&#xae;" horiz-adv-x="1746" d="M1614 729q0 -307 -217 -524t-524.5 -217t-524.5 217t-217 524t217 524t524.5 217t524.5 -217t217 -524zM1495 729q0 266 -180 449.5t-443 183.5q-260 0 -440 -183.5t-180 -449.5t180 -449.5t440 -183.5q262 0 442.5 183.5t180.5 449.5zM1114 322h-115l-106 344h-96v-344 h-111v813h209q90 0 139 -50q55 -55 56 -186q0 -127 -54 -180q-16 -16 -41 -31zM979 899q0 84 -25 111q-23 23 -59 22h-98v-266h98q35 0 57 22q27 29 27 111z" />
<glyph unicode="&#xaf;" horiz-adv-x="772" d="M621 1253h-469v117h469v-117z" />
<glyph unicode="&#xb0;" horiz-adv-x="811" d="M711 1178q0 -125 -89.5 -215.5t-216 -90.5t-216 90.5t-89.5 215.5t89.5 214t216 89t216 -89t89.5 -214zM563 1178q0 68 -45 113.5t-112.5 45.5t-112.5 -45t-45 -114.5t45 -115.5t112.5 -46t112.5 46t45 116z" />
<glyph unicode="&#xb1;" horiz-adv-x="909" d="M815 616h-280v-280h-158v280h-283v158h283v281h158v-281h280v-158zM815 49h-721v158h721v-158z" />
<glyph unicode="&#xb2;" horiz-adv-x="651" d="M551 584h-447v92l277 434q45 70 45 156q0 47 -27.5 74.5t-74.5 27.5q-100 0 -101 -115v-49h-123v45q0 111 60 164q61 55 164 55q98 0 159 -49q68 -53 68 -157q0 -98 -62 -195l-247 -387h309v-96z" />
<glyph unicode="&#xb3;" horiz-adv-x="651" d="M545 823q0 -76 -13.5 -118.5t-52.5 -77.5q-59 -53 -163.5 -53.5t-165.5 55.5q-59 53 -60 170v30h125v-32q0 -72 27 -97q31 -27 73 -26q47 0 74 26q31 33 31 129q0 98 -27 129q-27 33 -78 33h-55v96h55q41 0 68 25q33 31 33 121q0 82 -31 113q-23 23 -70 22q-45 0 -71 -27 q-25 -25 -25 -86v-38h-125v34q0 111 58 162q61 55 163.5 55t159.5 -53q63 -61 64 -176q0 -92 -35 -143q-31 -43 -70 -58q51 -18 78 -61q33 -48 33 -154z" />
<glyph unicode="&#xb4;" horiz-adv-x="772" d="M602 1477l-166 -277h-125l140 277h151z" />
<glyph unicode="&#xb5;" horiz-adv-x="817" d="M698 0h-161v82q-23 -41 -64 -66q-53 -33 -119 -32q-59 0 -80 28v-409h-159v1458h166v-780q0 -72 34.5 -110t90 -38t91 38t35.5 110v780h166v-1061z" />
<glyph unicode="&#xb6;" horiz-adv-x="1167" d="M1049 -397h-166v1700h-228v-1700h-166v1003h-110q-295 0 -295 426t295 426h670v-1855z" />
<glyph unicode="&#xb7;" horiz-adv-x="544" d="M416 477h-289v289h289v-289z" />
<glyph unicode="&#xb8;" horiz-adv-x="772" d="M463 -78l-103 -295h-131l117 295h117z" />
<glyph unicode="&#xb9;" horiz-adv-x="651" d="M410 584h-123v745l-148 -96v125l148 100h123v-874z" />
<glyph unicode="&#xba;" horiz-adv-x="641" d="M565 1040.5q0 -270.5 -63 -348.5q-61 -76 -183 -76q-119 0 -180 76q-63 78 -63 348.5t63.5 348t179.5 77.5q119 0 182.5 -77.5t63.5 -348zM426 1040.5q0 219.5 -35 268.5q-29 35 -72 34q-47 0 -71 -34q-33 -45 -33 -268.5t33 -268.5q25 -33 71 -33q45 0 72 33 q35 49 35 268.5z" />
<glyph unicode="&#xbb;" horiz-adv-x="802" d="M750 557l-304 -471v260l140 211l-140 209v260zM408 557l-304 -471v260l142 211l-142 209v260z" />
<glyph unicode="&#xbc;" horiz-adv-x="1624" d="M1106 1458l-506 -1458h-131l506 1458h131zM1522 129h-68v-129h-123v129h-301v100l240 645h121l-236 -645h176v179h123v-179h68v-100zM410 584h-125v745l-146 -96v125l148 100h123v-874z" />
<glyph unicode="&#xbd;" horiz-adv-x="1624" d="M1106 1458l-506 -1458h-131l506 1458h131zM1526 0h-447v92l277 434q45 70 45 156q0 47 -27.5 74.5t-75.5 27.5q-100 0 -100 -114v-49h-123v45q0 111 60 163q61 55 163 56q98 0 160 -49q68 -53 68 -158q0 -98 -62 -195l-247 -387h309v-96zM410 584h-125v745l-146 -96v125 l148 100h123v-874z" />
<glyph unicode="&#xbe;" horiz-adv-x="1624" d="M545 823q0 -76 -13.5 -118.5t-52.5 -77.5q-59 -53 -163.5 -53.5t-165.5 55.5q-59 53 -60 170v30h125v-32q0 -72 27 -97q31 -27 73 -26q47 0 74 26q31 33 31 129q0 98 -27 129q-27 33 -78 33h-55v96h55q41 0 68 25q33 31 33 121q0 82 -31 113q-23 23 -70 22q-45 0 -71 -27 q-25 -25 -25 -86v-38h-125v34q0 111 58 162q61 55 163.5 55t159.5 -53q63 -61 64 -176q0 -92 -35 -143q-31 -43 -70 -58q51 -18 78 -61q33 -48 33 -154zM1106 1458l-506 -1458h-131l506 1458h131zM1522 129h-68v-129h-123v129h-303v100l242 645h121l-236 -645h176v179h123 v-179h68v-100z" />
<glyph unicode="&#xbf;" horiz-adv-x="819" d="M705 -53q0 -184 -89 -271q-90 -86 -223 -86q-141 0 -225 84q-90 90 -90 291q0 152 63 244l121 174q45 66 45 143v140h166v-160q0 -86 -57 -172l-119 -174q-53 -78 -53 -199q0 -125 49 -180q37 -41 100 -41q59 0 99 39q47 49 47 168h166zM492 858h-203v203h203v-203z" />
<glyph unicode="&#xc0;" horiz-adv-x="868" d="M858 0h-186l-70 344h-338l-69 -344h-185l340 1458h170zM569 502l-135 672l-137 -672h272zM512 1559h-127l-166 276h152z" />
<glyph unicode="&#xc1;" horiz-adv-x="868" d="M858 0h-186l-70 344h-338l-69 -344h-185l340 1458h170zM569 502l-135 672l-137 -672h272zM651 1835l-166 -276h-125l140 276h151z" />
<glyph unicode="&#xc2;" horiz-adv-x="868" d="M858 0h-186l-70 344h-338l-69 -344h-185l340 1458h170zM569 502l-135 672l-137 -672h272zM694 1559h-135l-123 178l-121 -178h-137l191 276h137z" />
<glyph unicode="&#xc3;" horiz-adv-x="868" d="M858 0h-186l-70 344h-338l-69 -344h-185l340 1458h170zM569 502l-135 672l-137 -672h272zM711 1665q-86 -86 -166 -86q-59 0 -117 35q-47 31 -88 31q-45 0 -92 -48l-76 76q88 88 164 88q63 0 119 -35q55 -33 88 -32q41 0 90 49z" />
<glyph unicode="&#xc4;" horiz-adv-x="868" d="M858 0h-186l-70 344h-338l-69 -344h-185l340 1458h170zM569 502l-135 672l-137 -672h272zM360 1589h-167v168h167v-168zM680 1589h-166v168h166v-168z" />
<glyph unicode="&#xc5;" horiz-adv-x="868" d="M858 0h-186l-70 344h-338l-69 -344h-185l340 1458h170zM637 1745q0 -82 -58.5 -141.5t-142.5 -59.5q-82 0 -140 58.5t-58 142.5q0 82 57 140.5t141 58.5t142.5 -58.5t58.5 -140.5zM569 502l-135 672l-137 -672h272zM537 1745q0 41 -30 70.5t-71 29.5t-70.5 -29.5 t-29.5 -70.5t29.5 -72t70.5 -31t71 31t30 72z" />
<glyph unicode="&#xc6;" horiz-adv-x="1310" d="M1225 0h-561v352h-334l-125 -352h-195l539 1458h676v-158h-385v-489h331v-158h-331v-495h385v-158zM664 512v788l-279 -788h279z" />
<glyph unicode="&#xc7;" horiz-adv-x="866" d="M791 360q-4 -197 -113 -297q-86 -80 -225 -79q-156 0 -250 104q-70 78 -88.5 208t-18.5 433t18.5 433t88.5 208q94 104 250 105q141 0 231 -86q100 -98 104 -291h-176q0 111 -45 168q-41 51 -114 51q-78 0 -119 -55q-37 -51 -49.5 -159t-12.5 -374t12.5 -373.5 t49.5 -158.5q41 -55 119 -56q72 0 114 54q47 59 47 165h177zM516 -78l-102 -295h-131l116 295h117z" />
<glyph unicode="&#xc8;" horiz-adv-x="778" d="M694 0h-563v1458h563v-158h-387v-489h334v-158h-334v-495h387v-158zM494 1559h-127l-166 276h151z" />
<glyph unicode="&#xc9;" horiz-adv-x="778" d="M694 0h-563v1458h563v-158h-387v-489h334v-158h-334v-495h387v-158zM635 1835l-166 -276h-125l139 276h152z" />
<glyph unicode="&#xca;" horiz-adv-x="778" d="M694 0h-563v1458h563v-158h-387v-489h334v-158h-334v-495h387v-158zM676 1559h-135l-123 178l-121 -178h-137l190 276h137z" />
<glyph unicode="&#xcb;" horiz-adv-x="778" d="M694 0h-563v1458h563v-158h-387v-489h334v-158h-334v-495h387v-158zM342 1589h-168v168h168v-168zM662 1589h-166v168h166v-168z" />
<glyph unicode="&#xcc;" horiz-adv-x="440" d="M307 0h-176v1458h176v-1458zM307 1559h-127l-166 276h152z" />
<glyph unicode="&#xcd;" horiz-adv-x="440" d="M307 0h-176v1458h176v-1458zM440 1835l-166 -276h-124l139 276h151z" />
<glyph unicode="&#xce;" horiz-adv-x="440" d="M307 0h-176v1458h176v-1458zM477 1559h-135l-123 178l-121 -178h-137l191 276h137z" />
<glyph unicode="&#xcf;" horiz-adv-x="440" d="M307 0h-176v1458h176v-1458zM145 1589h-168v168h168v-168zM465 1589h-166v168h166v-168z" />
<glyph unicode="&#xd0;" horiz-adv-x="940" d="M844 729q0 -301 -17.5 -426t-87.5 -201q-96 -102 -250 -102h-335v662h-107v141h107v655h335q154 0 250 -102q70 -76 87.5 -201t17.5 -426zM668 729q0 264 -10.5 365.5t-49.5 150.5q-41 55 -125 55h-153v-497h166v-141h-166v-504h153q84 0 125 55q39 49 49.5 150.5 t10.5 365.5z" />
<glyph unicode="&#xd1;" horiz-adv-x="976" d="M844 0h-160l-377 997v-997h-176v1458h164l375 -997l-2 997h176v-1458zM770 1665q-86 -86 -166 -86q-59 0 -117 35q-47 31 -88 31q-45 0 -92 -48l-76 76q88 88 164 88q63 0 119 -35q55 -33 88 -32q41 0 90 49z" />
<glyph unicode="&#xd2;" horiz-adv-x="905" d="M809 729q0 -307 -17.5 -435t-86.5 -206q-94 -104 -252 -104q-156 0 -250 104q-70 78 -88.5 208t-18.5 433t18.5 433t88.5 208q94 104 250 105q158 0 252 -105q70 -78 87 -206t17 -435zM633 729q0 266 -12.5 373.5t-49.5 159.5q-41 55 -118.5 55t-118.5 -55 q-37 -51 -49.5 -159t-12.5 -374t12.5 -373.5t49.5 -158.5q41 -55 118.5 -55.5t118.5 55.5q37 51 49.5 158.5t12.5 373.5zM520 1559h-127l-166 276h152z" />
<glyph unicode="&#xd3;" horiz-adv-x="905" d="M809 729q0 -307 -17.5 -435t-86.5 -206q-94 -104 -252 -104q-156 0 -250 104q-70 78 -88.5 208t-18.5 433t18.5 433t88.5 208q94 104 250 105q158 0 252 -105q70 -78 87 -206t17 -435zM633 729q0 266 -12.5 373.5t-49.5 159.5q-41 55 -118.5 55t-118.5 -55 q-37 -51 -49.5 -159t-12.5 -374t12.5 -373.5t49.5 -158.5q41 -55 118.5 -55.5t118.5 55.5q37 51 49.5 158.5t12.5 373.5zM662 1835l-166 -276h-125l139 276h152z" />
<glyph unicode="&#xd4;" horiz-adv-x="905" d="M809 729q0 -307 -17.5 -435t-86.5 -206q-94 -104 -252 -104q-156 0 -250 104q-70 78 -88.5 208t-18.5 433t18.5 433t88.5 208q94 104 250 105q158 0 252 -105q70 -78 87 -206t17 -435zM633 729q0 266 -12.5 373.5t-49.5 159.5q-41 55 -118.5 55t-118.5 -55 q-37 -51 -49.5 -159t-12.5 -374t12.5 -373.5t49.5 -158.5q41 -55 118.5 -55.5t118.5 55.5q37 51 49.5 158.5t12.5 373.5zM702 1559h-135l-123 178l-120 -178h-138l191 276h137z" />
<glyph unicode="&#xd5;" horiz-adv-x="905" d="M809 729q0 -307 -17.5 -435t-86.5 -206q-94 -104 -252 -104q-156 0 -250 104q-70 78 -88.5 208t-18.5 433t18.5 433t88.5 208q94 104 250 105q158 0 252 -105q70 -78 87 -206t17 -435zM633 729q0 266 -12.5 373.5t-49.5 159.5q-41 55 -118.5 55t-118.5 -55 q-37 -51 -49.5 -159t-12.5 -374t12.5 -373.5t49.5 -158.5q41 -55 118.5 -55.5t118.5 55.5q37 51 49.5 158.5t12.5 373.5zM719 1665q-86 -86 -166 -86q-59 0 -117 35q-47 31 -88 31q-45 0 -92 -48l-76 76q88 88 164 88q63 0 119 -35q55 -33 88 -32q41 0 90 49z" />
<glyph unicode="&#xd6;" horiz-adv-x="905" d="M809 729q0 -307 -17.5 -435t-86.5 -206q-94 -104 -252 -104q-156 0 -250 104q-70 78 -88.5 208t-18.5 433t18.5 433t88.5 208q94 104 250 105q158 0 252 -105q70 -78 87 -206t17 -435zM633 729q0 266 -12.5 373.5t-49.5 159.5q-41 55 -118.5 55t-118.5 -55 q-37 -51 -49.5 -159t-12.5 -374t12.5 -373.5t49.5 -158.5q41 -55 118.5 -55.5t118.5 55.5q37 51 49.5 158.5t12.5 373.5zM369 1589h-168v168h168v-168zM688 1589h-166v168h166v-168z" />
<glyph unicode="&#xd7;" horiz-adv-x="909" d="M801 330l-107 -107l-239 238l-238 -238l-108 107l239 239l-239 238l108 108l238 -239l239 239l107 -108l-238 -238z" />
<glyph unicode="&#xd8;" horiz-adv-x="882" d="M809 729q0 -307 -17.5 -435t-86.5 -206q-94 -104 -252 -104q-104 0 -170 39l-39 -113h-127l69 196q-59 76 -74.5 207t-15.5 416q0 303 18.5 433t88.5 208q94 104 250 105q100 0 170 -41l39 114h126l-67 -198q57 -76 72.5 -206t15.5 -415zM567 1270q-41 47 -114 47 q-78 0 -119 -55q-37 -51 -49.5 -159t-12.5 -374q0 -289 17 -360zM633 729q0 274 -17 358l-278 -901q39 -45 115 -45q78 0 118 56q37 51 49.5 158.5t12.5 373.5z" />
<glyph unicode="&#xd9;" horiz-adv-x="911" d="M793 332q0 -158 -95 -252q-96 -96 -243 -96q-145 0 -242 96q-94 94 -94 252v1126h176v-1136q0 -84 46 -132.5t114 -48.5q70 0 115.5 48.5t45.5 132.5v1136h177v-1126zM537 1559h-127l-166 276h151z" />
<glyph unicode="&#xda;" horiz-adv-x="911" d="M793 332q0 -158 -95 -252q-96 -96 -243 -96q-145 0 -242 96q-94 94 -94 252v1126h176v-1136q0 -84 46 -132.5t114 -48.5q70 0 115.5 48.5t45.5 132.5v1136h177v-1126zM678 1835l-166 -276h-125l139 276h152z" />
<glyph unicode="&#xdb;" horiz-adv-x="911" d="M793 332q0 -158 -95 -252q-96 -96 -243 -96q-145 0 -242 96q-94 94 -94 252v1126h176v-1136q0 -84 46 -132.5t114 -48.5q70 0 115.5 48.5t45.5 132.5v1136h177v-1126zM719 1559h-135l-123 178l-121 -178h-137l190 276h137z" />
<glyph unicode="&#xdc;" horiz-adv-x="911" d="M793 332q0 -158 -95 -252q-96 -96 -243 -96q-145 0 -242 96q-94 94 -94 252v1126h176v-1136q0 -84 46 -132.5t114 -48.5q70 0 115.5 48.5t45.5 132.5v1136h177v-1126zM385 1589h-168v168h168v-168zM705 1589h-166v168h166v-168z" />
<glyph unicode="&#xdd;" horiz-adv-x="722" d="M719 1458l-270 -868v-590h-177v590l-268 868h193l163 -622l164 622h195zM582 1835l-166 -276h-125l139 276h152z" />
<glyph unicode="&#xde;" horiz-adv-x="890" d="M805 737q0 -225 -82 -325.5t-264 -100.5h-152v-311h-176v1458h176v-295h152q174 0 260 -96.5t86 -329.5zM629 737q0 131 -36 199t-130 68h-156v-535h156q94 0 130 67.5t36 200.5z" />
<glyph unicode="&#xdf;" horiz-adv-x="806" d="M727 449q0 -152 -15.5 -233t-74.5 -140q-78 -76 -225 -76v150q76 0 106 36q27 31 35 91.5t8 183.5q0 213 -41 266q-31 41 -92 41h-16v141h14q47 0 78 37q39 47 39 170t-39 170q-33 39 -92 39q-57 0 -93 -38t-36 -111v-1176h-166v1169q0 141 84 226q84 80 209 80 q135 0 213 -78q86 -86 86 -269q0 -133 -37 -204q-25 -47 -74 -80q45 -29 72 -68q35 -47 46 -116.5t11 -210.5z" />
<glyph unicode="&#xe0;" d="M657 0h-157v94q-25 -41 -62 -71q-51 -39 -125 -39q-111 0 -182 79q-68 74 -68 238q0 158 95 240q78 72 225 71h109v168q0 152 -125 152q-51 0 -82 -35q-39 -41 -39 -123h-166q0 143 82 225q78 78 205 78q133 0 206 -73q84 -88 84 -234v-770zM492 295v197h-95 q-78 0 -118 -39q-49 -43 -50 -146q0 -178 129 -178q59 0 96.5 46t37.5 120zM455 1200h-127l-166 277h151z" />
<glyph unicode="&#xe1;" d="M659 0h-157v94q-25 -41 -62 -71q-51 -39 -125 -39q-111 0 -182 79q-68 78 -67 238q0 156 94 240q82 72 225 71h109v168q0 152 -125 152q-47 0 -82 -35q-39 -41 -39 -123h-166q0 143 82 225q78 78 205 78q133 0 206 -73q84 -88 84 -234v-770zM494 295v197h-95 q-78 0 -118 -39q-49 -45 -50 -146q0 -178 129 -178q59 0 96.5 46t37.5 120zM596 1477l-166 -277h-125l139 277h152z" />
<glyph unicode="&#xe2;" d="M659 0h-157v94q-25 -41 -62 -71q-51 -39 -125 -39q-111 0 -182 79q-68 78 -67 238q0 156 94 240q82 72 225 71h109v168q0 152 -125 152q-47 0 -82 -35q-39 -41 -39 -123h-166q0 143 82 225q78 78 205 78q133 0 206 -73q84 -88 84 -234v-770zM494 295v197h-95 q-78 0 -118 -39q-49 -45 -50 -146q0 -178 129 -178q59 0 96.5 46t37.5 120zM633 1200h-135l-123 178l-121 -178h-137l190 277h137z" />
<glyph unicode="&#xe3;" d="M659 0h-157v94q-25 -41 -62 -71q-51 -39 -125 -39q-111 0 -182 79q-68 78 -67 238q0 156 94 240q82 72 225 71h109v168q0 152 -125 152q-47 0 -82 -35q-39 -41 -39 -123h-166q0 143 82 225q78 78 205 78q133 0 206 -73q84 -88 84 -234v-770zM494 295v197h-95 q-78 0 -118 -39q-49 -45 -50 -146q0 -178 129 -178q59 0 96.5 46t37.5 120zM649 1307q-86 -86 -166 -86q-59 0 -116 34q-47 31 -88 31q-45 0 -93 -47l-75 76q88 88 163 88q63 0 119 -35q55 -33 88 -33q41 0 90 49z" />
<glyph unicode="&#xe4;" d="M659 0h-157v94q-25 -41 -62 -71q-51 -39 -125 -39q-111 0 -182 79q-68 78 -67 238q0 156 94 240q82 72 225 71h109v168q0 152 -125 152q-47 0 -82 -35q-39 -41 -39 -123h-166q0 143 82 225q78 78 205 78q133 0 206 -73q84 -88 84 -234v-770zM494 295v197h-95 q-78 0 -118 -39q-49 -45 -50 -146q0 -178 129 -178q59 0 96.5 46t37.5 120zM299 1231h-168v168h168v-168zM618 1231h-165v168h165v-168z" />
<glyph unicode="&#xe5;" d="M659 0h-157v94q-25 -41 -62 -71q-51 -39 -125 -39q-111 0 -182 79q-68 78 -67 238q0 156 94 240q82 72 225 71h109v168q0 152 -125 152q-47 0 -82 -35q-39 -41 -39 -123h-166q0 143 82 225q78 78 205 78q133 0 206 -73q84 -88 84 -234v-770zM575 1397q0 -82 -58 -141.5 t-142 -59.5q-82 0 -140.5 58.5t-58.5 142.5q0 82 57.5 140t141.5 58t142 -58t58 -140zM494 295v197h-95q-78 0 -118 -39q-49 -45 -50 -146q0 -178 129 -178q59 0 96.5 46t37.5 120zM475 1397q0 41 -29.5 70.5t-70.5 29.5t-71 -29.5t-30 -70.5t30 -72t71 -31t70.5 31t29.5 72 z" />
<glyph unicode="&#xe6;" horiz-adv-x="1173" d="M1094 492h-435q0 -258 43 -314q37 -45 94.5 -45t94.5 41q37 43 37 121h164q-4 -147 -84 -234q-72 -78 -211 -77q-102 0 -176 57q-45 35 -74 90q-37 -72 -80 -102q-57 -45 -152 -45q-111 0 -182 79q-68 78 -67 238q0 156 94 240q82 72 225 71h109v168q0 152 -125 152 q-51 0 -84 -37q-37 -43 -37 -121h-166q0 143 82 225q78 78 205 78q115 0 176 -53q20 -18 39 -47q12 23 30 37q70 63 181 63q133 0 209 -82q41 -45 62 -129t24.5 -158.5t3.5 -215.5zM494 295v197h-95q-78 0 -118 -39q-49 -45 -50 -146q0 -178 129 -178q59 0 96.5 46t37.5 120 zM928 616q0 219 -41 269q-37 45 -92.5 45t-92.5 -45q-43 -51 -43 -269h269z" />
<glyph unicode="&#xe7;" horiz-adv-x="741" d="M674 295q-4 -160 -82 -238q-72 -74 -209 -73q-150 0 -223 98q-45 59 -61.5 164.5t-16.5 284t16.5 284t61.5 164.5q74 98 223 98q137 0 207 -69q80 -80 84 -242h-164q0 84 -33 123q-35 41 -92 41q-61 0 -94 -45q-27 -37 -35 -116t-8 -238.5t8 -237.5t35 -115 q33 -45 94 -45q55 0 90 39t35 123h164zM463 -78l-103 -295h-131l117 295h117z" />
<glyph unicode="&#xe8;" horiz-adv-x="772" d="M770 492h-436q0 -256 45 -314q37 -45 92 -45q57 0 94 41q37 43 37 121h164q-4 -147 -84 -234q-72 -78 -211 -77q-129 0 -209 82q-57 59 -75.5 167.5t-18.5 296.5q0 190 17.5 299t74.5 166q80 82 209 82q133 0 209 -82q59 -66 75.5 -180t16.5 -323zM604 616q0 219 -41 269 q-37 45 -94 45q-55 0 -92 -45q-43 -51 -43 -269h270zM528 1200h-127l-165 277h151z" />
<glyph unicode="&#xe9;" horiz-adv-x="761" d="M684 492h-436q0 -256 45 -314q37 -45 92 -45q57 0 94 41q37 43 37 121h164q-4 -147 -84 -234q-72 -78 -211 -77q-129 0 -209 82q-57 59 -75.5 167.5t-18.5 296.5q0 190 17.5 299t74.5 166q80 82 209 82q133 0 209 -82q59 -66 75.5 -180t16.5 -323zM518 616q0 219 -41 269 q-37 45 -94 45q-55 0 -92 -45q-43 -51 -43 -269h270zM602 1477l-166 -277h-125l140 277h151z" />
<glyph unicode="&#xea;" horiz-adv-x="761" d="M684 492h-436q0 -256 45 -314q37 -45 92 -45q57 0 94 41q37 43 37 121h164q-4 -147 -84 -234q-72 -78 -211 -77q-129 0 -209 82q-57 59 -75.5 167.5t-18.5 296.5q0 190 17.5 299t74.5 166q80 82 209 82q133 0 209 -82q59 -66 75.5 -180t16.5 -323zM518 616q0 219 -41 269 q-37 45 -94 45q-55 0 -92 -45q-43 -51 -43 -269h270zM643 1200h-135l-123 178l-121 -178h-137l190 277h138z" />
<glyph unicode="&#xeb;" horiz-adv-x="761" d="M684 492h-436q0 -256 45 -314q37 -45 92 -45q57 0 94 41q37 43 37 121h164q-4 -147 -84 -234q-72 -78 -211 -77q-129 0 -209 82q-57 59 -75.5 167.5t-18.5 296.5q0 190 17.5 299t74.5 166q80 82 209 82q133 0 209 -82q59 -66 75.5 -180t16.5 -323zM518 616q0 219 -41 269 q-37 45 -94 45q-55 0 -92 -45q-43 -51 -43 -269h270zM309 1231h-168v168h168v-168zM629 1231h-166v168h166v-168z" />
<glyph unicode="&#xec;" horiz-adv-x="399" d="M285 0h-166v1061h166v-1061zM281 1200h-127l-166 277h151z" />
<glyph unicode="&#xed;" horiz-adv-x="399" d="M285 0h-166v1061h166v-1061zM420 1477l-166 -277h-127l141 277h152z" />
<glyph unicode="&#xee;" horiz-adv-x="399" d="M285 0h-166v1061h166v-1061zM459 1200h-135l-123 178l-123 -178h-135l190 277h135z" />
<glyph unicode="&#xef;" horiz-adv-x="399" d="M285 0h-166v1061h166v-1061zM444 1231h-168v168h168v-168zM125 1231h-168v168h168v-168z" />
<glyph unicode="&#xf0;" horiz-adv-x="772" d="M686 504q0 -172 -16.5 -272.5t-61.5 -155.5q-76 -92 -223 -92q-145 0 -221 92q-80 98 -80 428q0 193 15.5 292t62.5 152q70 76 182 76q72 0 119 -33l-64 187h-159v125h118l-55 155h168l55 -155h146v-125h-107l72 -222q49 -155 49 -452zM520 506q0 156 -7 226.5t-34 105.5 q-33 43 -94 43q-59 0 -92 -43q-27 -35 -35 -108t-8 -224.5t8 -223t35 -106.5q33 -43 92 -43q61 0 94 43q27 35 34 104.5t7 225.5z" />
<glyph unicode="&#xf1;" horiz-adv-x="808" d="M700 0h-165v780q0 72 -36 110t-91.5 38t-90 -38t-34.5 -110v-780h-166v1061h159v-82q23 39 66 65q53 33 115 33q113 0 180 -78q63 -70 63 -219v-780zM686 1307q-86 -86 -166 -86q-59 0 -117 34q-47 31 -88 31q-45 0 -92 -47l-76 76q88 88 164 88q63 0 119 -35 q55 -33 88 -33q41 0 90 49z" />
<glyph unicode="&#xf2;" horiz-adv-x="772" d="M770 530.5q0 -180.5 -15.5 -285t-60.5 -163.5q-74 -98 -225 -98q-150 0 -223 98q-45 59 -61.5 164.5t-16.5 284t16.5 284t61.5 164.5q74 98 223 98q152 0 225 -98q45 -59 60.5 -163.5t15.5 -285zM604 530q0 166 -7 242t-34 113q-33 45 -94 45q-59 0 -92 -45 q-27 -37 -35 -116t-8 -238.5t8 -237.5t35 -115q33 -45 92 -45q61 0 94 45q27 37 34 112.5t7 239.5zM541 1200h-127l-166 277h151z" />
<glyph unicode="&#xf3;" d="M684 530.5q0 -180.5 -15.5 -285t-60.5 -163.5q-74 -98 -225 -98q-150 0 -223 98q-45 59 -61.5 164.5t-16.5 284t16.5 284t61.5 164.5q74 98 223 98q152 0 225 -98q45 -59 60.5 -163.5t15.5 -285zM518 530q0 166 -7 242t-34 113q-33 45 -94 45q-59 0 -92 -45 q-27 -37 -35 -116t-8 -238.5t8 -237.5t35 -115q33 -45 92 -45q61 0 94 45q27 37 34 112.5t7 239.5zM602 1477l-166 -277h-125l140 277h151z" />
<glyph unicode="&#xf4;" d="M684 530.5q0 -180.5 -15.5 -285t-60.5 -163.5q-74 -98 -225 -98q-150 0 -223 98q-45 59 -61.5 164.5t-16.5 284t16.5 284t61.5 164.5q74 98 223 98q152 0 225 -98q45 -59 60.5 -163.5t15.5 -285zM518 530q0 166 -7 242t-34 113q-33 45 -94 45q-59 0 -92 -45 q-27 -37 -35 -116t-8 -238.5t8 -237.5t35 -115q33 -45 92 -45q61 0 94 45q27 37 34 112.5t7 239.5zM643 1200h-135l-123 178l-121 -178h-137l190 277h138z" />
<glyph unicode="&#xf5;" d="M684 530.5q0 -180.5 -15.5 -285t-60.5 -163.5q-74 -98 -225 -98q-150 0 -223 98q-45 59 -61.5 164.5t-16.5 284t16.5 284t61.5 164.5q74 98 223 98q152 0 225 -98q45 -59 60.5 -163.5t15.5 -285zM518 530q0 166 -7 242t-34 113q-33 45 -94 45q-59 0 -92 -45 q-27 -37 -35 -116t-8 -238.5t8 -237.5t35 -115q33 -45 92 -45q61 0 94 45q27 37 34 112.5t7 239.5zM657 1307q-86 -86 -165 -86q-59 0 -117 34q-47 31 -88 31q-45 0 -92 -47l-76 76q88 88 164 88q63 0 118 -35q55 -33 88 -33q41 0 91 49z" />
<glyph unicode="&#xf6;" d="M684 530.5q0 -180.5 -15.5 -285t-60.5 -163.5q-74 -98 -225 -98q-150 0 -223 98q-45 59 -61.5 164.5t-16.5 284t16.5 284t61.5 164.5q74 98 223 98q152 0 225 -98q45 -59 60.5 -163.5t15.5 -285zM518 530q0 166 -7 242t-34 113q-33 45 -94 45q-59 0 -92 -45 q-27 -37 -35 -116t-8 -238.5t8 -237.5t35 -115q33 -45 92 -45q61 0 94 45q27 37 34 112.5t7 239.5zM309 1231h-168v168h168v-168zM629 1231h-166v168h166v-168z" />
<glyph unicode="&#xf7;" horiz-adv-x="909" d="M815 487h-721v160h721v-160zM557 125h-203v203h203v-203zM557 807h-203v203h203v-203z" />
<glyph unicode="&#xf8;" horiz-adv-x="757" d="M694 1151l-76 -186q66 -98 66 -435q0 -180 -15.5 -284.5t-60.5 -163.5q-74 -98 -225 -98q-86 0 -150 34l-40 -108h-119l73 186q-66 102 -65 434q0 178 16.5 284t61.5 165q74 98 223 98q86 0 149 -35l43 109h119zM520 530q0 156 -12 201l-211 -567q33 -37 86 -37 q61 0 94 45q27 37 35 115.5t8 242.5zM471 897q-33 37 -88 37q-59 0 -92 -45q-27 -37 -35 -116t-8 -242.5t10 -200.5z" />
<glyph unicode="&#xf9;" horiz-adv-x="808" d="M692 0h-160v82q-23 -39 -65 -66q-53 -33 -115 -32q-113 0 -180 77q-63 70 -63 220v780h165v-780q0 -72 36 -110t91.5 -38t90 38t34.5 110v780h166v-1061zM475 1200h-127l-166 277h152z" />
<glyph unicode="&#xfa;" horiz-adv-x="808" d="M692 0h-160v82q-23 -39 -65 -66q-53 -33 -115 -32q-113 0 -180 77q-63 70 -63 220v780h165v-780q0 -72 36 -110t91.5 -38t90 38t34.5 110v780h166v-1061zM637 1477l-166 -277h-125l139 277h152z" />
<glyph unicode="&#xfb;" horiz-adv-x="808" d="M692 0h-160v82q-23 -39 -65 -66q-53 -33 -115 -32q-113 0 -180 77q-63 70 -63 220v780h165v-780q0 -72 36 -110t91.5 -38t90 38t34.5 110v780h166v-1061zM666 1200h-136l-122 178l-121 -178h-137l190 277h137z" />
<glyph unicode="&#xfc;" horiz-adv-x="808" d="M692 0h-160v82q-23 -39 -65 -66q-53 -33 -115 -32q-113 0 -180 77q-63 70 -63 220v780h165v-780q0 -72 36 -110t91.5 -38t90 38t34.5 110v780h166v-1061zM330 1231h-168v168h168v-168zM649 1231h-166v168h166v-168z" />
<glyph unicode="&#xfd;" horiz-adv-x="706" d="M694 1061l-299 -1231q-31 -133 -118 -180t-234 -47v147q82 0 127 26.5t63 96.5l33 129l-258 1059h182l162 -797l160 797h182zM575 1477l-165 -277h-125l139 277h151z" />
<glyph unicode="&#xfe;" horiz-adv-x="796" d="M711 530.5q0 -204.5 -14.5 -309t-61.5 -160.5q-66 -78 -176 -77q-66 0 -115 30q-35 20 -59 60v-471h-166v1855h160v-479q18 37 65 65q53 33 115 33q111 0 176 -78q47 -55 61.5 -159.5t14.5 -309zM545 530q0 166 -7.5 242t-33.5 113q-33 45 -92 45q-53 0 -86 -33 q-41 -41 -41 -123v-485q0 -84 41 -125q31 -31 86 -31q59 0 92 45q27 37 34 112.5t7 239.5z" />
<glyph unicode="&#xff;" horiz-adv-x="706" d="M694 1061l-299 -1231q-31 -133 -118 -180t-234 -47v147q82 0 127 26.5t63 96.5l33 129l-258 1059h182l162 -797l160 797h182zM283 1231h-168v168h168v-168zM602 1231h-166v168h166v-168z" />
<glyph unicode="&#x152;" horiz-adv-x="1273" d="M1188 0h-547v68q-72 -84 -197 -84q-154 0 -241 104q-66 78 -86.5 215t-20.5 426q0 293 20.5 429t86.5 212q90 104 241 105q129 0 197 -84v67h547v-158h-385v-489h332v-158h-332v-495h385v-158zM633 729q0 266 -12.5 373.5t-49.5 159.5q-41 55 -118.5 55t-118.5 -55 q-37 -51 -49.5 -159t-12.5 -374t12.5 -373.5t49.5 -158.5q41 -55 118.5 -55.5t118.5 55.5q37 51 49.5 158.5t12.5 373.5z" />
<glyph unicode="&#x153;" horiz-adv-x="1200" d="M1120 492h-436q0 -256 45 -314q37 -45 92 -45q57 0 94 41q37 43 37 121h164q-4 -147 -84 -234q-76 -78 -211 -77q-111 0 -180 65q-18 18 -37 51q-14 -29 -37 -51q-76 -66 -184 -65q-150 0 -223 98q-45 59 -61.5 164.5t-16.5 284t16.5 284t61.5 164.5q74 98 223 98 q115 0 186 -67q16 -14 35 -47q18 33 37 49q72 66 178 65q133 0 209 -82q59 -66 75.5 -180t16.5 -323zM518 530q0 166 -7 242t-34 113q-33 45 -94 45q-59 0 -92 -45q-27 -37 -35 -116t-8 -238.5t8 -237.5t35 -115q33 -45 92 -45q61 0 94 45q27 37 34 112.5t7 239.5zM954 616 q0 219 -41 269q-37 45 -94 45q-55 0 -92 -45q-43 -51 -43 -269h270z" />
<glyph unicode="&#x178;" horiz-adv-x="722" d="M719 1458l-270 -868v-590h-177v590l-268 868h193l163 -622l164 622h195zM289 1589h-168v168h168v-168zM608 1589h-166v168h166v-168z" />
<glyph unicode="&#x2c6;" horiz-adv-x="772" d="M643 1200h-135l-123 178l-121 -178h-137l190 277h138z" />
<glyph unicode="&#x2dc;" horiz-adv-x="772" d="M659 1307q-86 -86 -165 -86q-59 0 -117 34q-47 31 -88 31q-45 0 -92 -47l-76 76q88 88 164 88q63 0 118 -35q55 -33 89 -33q41 0 90 49z" />
<glyph unicode="&#x2000;" horiz-adv-x="970" />
<glyph unicode="&#x2001;" horiz-adv-x="1943" />
<glyph unicode="&#x2002;" horiz-adv-x="970" />
<glyph unicode="&#x2003;" horiz-adv-x="1943" />
<glyph unicode="&#x2004;" horiz-adv-x="647" />
<glyph unicode="&#x2005;" horiz-adv-x="485" />
<glyph unicode="&#x2006;" horiz-adv-x="323" />
<glyph unicode="&#x2007;" horiz-adv-x="323" />
<glyph unicode="&#x2008;" horiz-adv-x="241" />
<glyph unicode="&#x2009;" horiz-adv-x="387" />
<glyph unicode="&#x200a;" horiz-adv-x="106" />
<glyph unicode="&#x2010;" horiz-adv-x="610" d="M506 500h-402v157h402v-157z" />
<glyph unicode="&#x2011;" horiz-adv-x="610" d="M506 500h-402v157h402v-157z" />
<glyph unicode="&#x2012;" horiz-adv-x="610" d="M506 500h-402v157h402v-157z" />
<glyph unicode="&#x2013;" horiz-adv-x="909" d="M815 500h-721v157h721v-157z" />
<glyph unicode="&#x2014;" horiz-adv-x="1415" d="M1311 500h-1207v157h1207v-157z" />
<glyph unicode="&#x2018;" horiz-adv-x="423" d="M305 1260h-188v198l188 139v-337z" />
<glyph unicode="&#x2019;" horiz-adv-x="423" d="M305 1260l-188 -140v338h188v-198z" />
<glyph unicode="&#x201a;" horiz-adv-x="423" d="M305 0l-188 -139v338h188v-199z" />
<glyph unicode="&#x201c;" horiz-adv-x="763" d="M647 1260h-188v198l188 139v-337zM305 1260h-188v198l188 139v-337z" />
<glyph unicode="&#x201d;" horiz-adv-x="763" d="M647 1260l-188 -140v338h188v-198zM305 1260l-188 -140v338h188v-198z" />
<glyph unicode="&#x201e;" horiz-adv-x="763" d="M647 0l-188 -139v338h188v-199zM305 0l-188 -139v338h188v-199z" />
<glyph unicode="&#x2022;" horiz-adv-x="931" d="M799 684q0 -139 -98.5 -236.5t-235.5 -97.5t-235.5 97.5t-98.5 236.5t98.5 236.5t235.5 97.5t235.5 -97.5t98.5 -236.5z" />
<glyph unicode="&#x2026;" horiz-adv-x="1230" d="M1112 0h-203v203h203v-203zM324 0h-203v203h203v-203zM717 0h-203v203h203v-203z" />
<glyph unicode="&#x202f;" horiz-adv-x="387" />
<glyph unicode="&#x2039;" horiz-adv-x="460" d="M356 86l-303 471l303 469v-260l-139 -209l139 -211v-260z" />
<glyph unicode="&#x203a;" horiz-adv-x="460" d="M408 557l-304 -471v260l140 211l-140 209v260z" />
<glyph unicode="&#x205f;" horiz-adv-x="485" />
<glyph unicode="&#x20ac;" horiz-adv-x="970" d="M883 360q-4 -197 -113 -297q-86 -80 -225 -79q-156 0 -250 104q-55 59 -77.5 150.5t-24.5 271.5h-125v127h120v184h-120v127h125q2 180 24.5 271.5t77.5 150.5q94 104 250 105q141 0 231 -86q102 -100 107 -291h-176q-4 219 -162 219q-80 0 -121 -55q-31 -41 -42 -102.5 t-13 -211.5h245v-127h-247v-184h247v-127h-245q2 -150 13 -211t42 -102q45 -55 121 -56q158 0 162 219h176z" />
<glyph unicode="&#x2122;" horiz-adv-x="1261" d="M1153 571h-117v598l-133 -385h-72l-133 377v-590h-114v887h106l178 -477l176 477h109v-887zM473 1352h-149v-781h-115v781h-150v106h414v-106z" />
<glyph unicode="&#xe000;" horiz-adv-x="1060" d="M0 1060h1060v-1060h-1060v1060z" />
<glyph unicode="&#xfb01;" horiz-adv-x="882" d="M485 932h-163v-932h-166v932h-121v129h121v104q0 162 92 238q78 66 237 65v-149q-84 0 -123.5 -38t-39.5 -122v-98h163v-129zM766 0h-166v1061h166v-1061zM780 1249h-194v193h194v-193z" />
<glyph unicode="&#xfb02;" horiz-adv-x="958" d="M485 932h-163v-932h-166v932h-121v129h121v104q0 162 92 238q78 66 237 65v-149q-164 0 -163 -160v-98h163v-129zM926 0q-154 0 -232 66q-94 78 -94 237v1155h166v-1149q0 -160 160 -159v-150z" />
<glyph unicode="&#xfb03;" horiz-adv-x="1439" d="M1323 0h-166v1042h166v-1042zM1337 1249h-195v193h195v-193zM1005 932h-163v-932h-166v932h-121v129h121v102q0 160 92 236q80 68 237 67v-149q-164 0 -163 -160v-96h163v-129zM485 932h-163v-932h-166v932h-121v129h121v102q0 160 92 236q80 68 237 67v-149 q-164 0 -163 -160v-96h163v-129z" />
<glyph unicode="&#xfb04;" horiz-adv-x="1507" d="M1472 0q-152 0 -229 66q-94 78 -94 237v1155h165v-1149q0 -160 158 -159v-150zM1005 932h-163v-932h-166v932h-121v129h121v102q0 160 92 236q80 68 237 67v-149q-164 0 -163 -160v-96h163v-129zM485 932h-163v-932h-166v932h-121v129h121v102q0 160 92 236q80 68 237 67 v-149q-164 0 -163 -160v-96h163v-129z" />
</font>
</defs>
</svg>
